<svg xmlns="http://www.w3.org/2000/svg" viewBox="0 0 702.48 889.49"><defs><style>.cls-1{fill:#f2f2f2}.cls-12,.cls-14,.cls-2,.cls-3,.cls-5,.cls-6,.cls-8,.cls-9{fill-rule:evenodd}.cls-3{fill:#ffd98e}.cls-10,.cls-11,.cls-13,.cls-4,.cls-7{fill:none;stroke-linecap:round;stroke-linejoin:round}.cls-11,.cls-4{stroke:#ff8364}.cls-4{stroke-width:5.73px}.cls-5{fill:#d18c65}.cls-6{fill:#ff8364}.cls-13,.cls-7{stroke:#ffd98e}.cls-7{stroke-width:2.83px}.cls-8{fill:#6bd5e1}.cls-9{fill:#dfdfdf}.cls-10{stroke:#6bd5e1}.cls-10,.cls-11{stroke-width:3.11px}.cls-12{fill:#1b3c87}.cls-13{stroke-width:4.23px}.cls-14{fill:#e49d75}</style></defs><g id="Layer_2" data-name="Layer 2"><g id="Layer_1-2" data-name="Layer 1"><path class="cls-1" d="M623.07 143.07c52.35 64.75 86.21 135.78 78.25 199.05-7.77 63.08-57.32 118.58-109.7 195.53-52.35 77.14-107.84 175.93-187.76 200.53-80.1 24.6-184.62-24.79-266.94-101.93S-5.52 454.59.4 355.81s77.7-191.65 160-256.39S335.6-2 417.55 9s152.98 69.33 205.52 134.07z"/><path class="cls-2" d="M334.81 433.46c54 0 83 36.08 88.39 72.72 5.48 37.48-.77 68.51.79 113.82 1.06 30.51 14.49 50.89 23.1 78.09s-221.18 34.06-219.81 8.62 17.81-51.5 18.4-83.19c.6-32.31-4-51.7-3.37-104.26.47-41.49 38.48-85.8 92.5-85.8z"/><path class="cls-3" d="M113.09 888.29c-2.07-25.54 9.32-116.62 44.53-184.63 131.51-72.83 296.51-38.14 361.75 0 22.09 22.44 38.06 171.52 33.23 182.22"/><path class="cls-4" d="M189 885.88c2.07-16.57 5.35-43.27 10.7-68m280.97 68c-2.07-16.57-5.35-43.27-10.7-68"/><path class="cls-5" d="M251.34 551.72A14.63 14.63 0 11266 566.34a14.63 14.63 0 01-14.66-14.62zm134.16 0a14.63 14.63 0 1114.63 14.62 14.63 14.63 0 01-14.63-14.62z"/><path class="cls-6" d="M393.07 299.87c-14.76-11.51-18.4 1.35-20.71 9s-2.14 21.14 9.43 20.85c10.14 9.09 19.58-2.68 22.48-8.66s10.02-18.95-11.2-21.19z"/><path class="cls-7" d="M402.83 291.67c-5.09 1.79-7.95 4.23-9.57 8.47"/><path class="cls-8" d="M296.82 368.18A17.14 17.14 0 11314 385.31a17.14 17.14 0 01-17.18-17.13z"/><path class="cls-9" d="M178.13 375.74l47.47-12.05 19.23 75.78-47.46 12z"/><path class="cls-6" d="M188.13 384.09l32.66-8.29 2.52 9.93-32.66 8.27z"/><path class="cls-10" d="M193.39 404.8l32.66-8.29m-29.92 19.07l32.67-8.29M199 426.83l32.69-8.3m-29.95 19.17l12.82-3.26m14.73-3.74l5.14-1.3"/><path class="cls-9" d="M146.66 203.68l122.84-58.49 38.39 80.61-122.84 58.5z"/><path class="cls-11" d="M189.14 266.47l12.22-35.77 22.77 4.3 8.94-44.11 22 3.66 6.4-31.12"/><path class="cls-3" d="M197.05 233a6.33 6.33 0 118.45 3 6.33 6.33 0 01-8.45-3zm30.6-38.38a6.34 6.34 0 118.45 3 6.33 6.33 0 01-8.45-3zm232.69 67.98A21.7 21.7 0 11482 284.3a21.69 21.69 0 01-21.66-21.7z"/><path class="cls-11" d="M518.67 258.81a25 25 0 01-24 31.76 25.14 25.14 0 01-4.87-.47"/><path class="cls-3" d="M468.88 279.08L460.56 294l34.35 5.52-3.76-17.38"/><path class="cls-12" d="M476.92 262.6a5.12 5.12 0 115.12 5.12 5.12 5.12 0 01-5.12-5.12z"/><path class="cls-3" d="M512.17 257.48a5.12 5.12 0 115.12 5.12 5.13 5.13 0 01-5.12-5.12z"/><path class="cls-6" d="M100.91 99.47l32.09 8.67-31.6 117-32.09-8.64z"/><path class="cls-13" d="M79.51 178.73l17.67 4.78M73.9 199.49l17.68 4.77M85.11 158l17.68 4.78m-12.07-25.55l17.67 4.77m-12.07-25.52l17.68 4.77"/><path class="cls-9" d="M431.43 75.21l121.17 29.25-20 82.62-121.12-29.26z"/><path class="cls-6" d="M503.9 164.78a13.06 13.06 0 119.63 15.76 13.06 13.06 0 01-9.63-15.76z"/><path class="cls-6" d="M507.76 175.53l-8.71 22.71 12.16-2.75 7.81 7.25 1.57-24.74"/><path class="cls-10" d="M438.59 96.64l95.66 23.1m-101.2-.43l57.77 13.95"/><path class="cls-8" d="M239.14 86.48l-13-14.09 18.7-4.23 18.71-4.23-5.69 18.32-5.69 18.31z"/><path class="cls-3" d="M497.43 381.88L479.62 389l2.73-19 2.73-19 15.07 11.85 15.08 11.86z"/><path class="cls-11" d="M351.24 153a9.3 9.3 0 119.3 9.3 9.3 9.3 0 01-9.3-9.3z"/><path class="cls-3" d="M91.4 308.8a9.3 9.3 0 119.3 9.3 9.3 9.3 0 01-9.3-9.3z"/><path class="cls-5" d="M301.81 606.75H364s.29 64.25 0 89.53c0 10.43-62.17 9.24-62.17 0z"/><path class="cls-14" d="M270 545.32c0-47.72 29-86.41 64.83-86.41s64.84 38.69 64.84 86.41-29 86.42-64.84 86.42S270 593.05 270 545.32z"/><path class="cls-2" d="M369.84 452.72c-16.47 38.27-84.71 75.63-113.45 84.37-4.54-22.85 24.87-120.18 113.45-84.37z"/><path class="cls-2" d="M333.37 451.54c-12.47 4.75 28.07 69.59 76.65 85.55 19.83-28.23-25.89-86.9-76.65-85.55z"/><path class="cls-3" d="M426.07 17.13a17.14 17.14 0 1117.13 17.13 17.13 17.13 0 01-17.13-17.13z"/><path class="cls-10" d="M130.62 467.56a16 16 0 1116 16 16 16 0 01-16-16z"/><path class="cls-11" d="M485.13 460.82a9.31 9.31 0 119.31 9.3 9.3 9.3 0 01-9.31-9.3z"/><path class="cls-1" d="M623.07 143.82c52.35 64.74 86.21 135.78 78.25 199C693.55 406 644 461.44 591.62 538.4c-52.35 77.14-107.84 175.92-187.76 200.52-80.1 24.61-184.62-24.78-266.94-101.92S-5.52 455.34.4 356.55s77.7-191.64 160-256.39S335.6-1.21 417.55 9.7s152.98 69.37 205.52 134.12z"/><path class="cls-2" d="M334.81 434.2c54 0 83 36.09 88.39 72.73 5.48 37.47-.77 68.5.79 113.81 1.06 30.52 14.49 50.89 23.1 78.1s-221.18 34.06-219.81 8.61 17.81-51.5 18.4-83.19c.6-32.3-4-51.7-3.37-104.25.47-41.5 38.48-85.81 92.5-85.81z"/><path class="cls-3" d="M113.09 889c-2.07-25.54 9.32-116.62 44.53-184.62 131.51-72.83 296.51-38.15 361.75 0 22.09 22.44 38.06 171.51 33.23 182.21"/><path class="cls-4" d="M189 886.62c2.07-16.57 5.35-43.27 10.7-68m280.97 68c-2.07-16.57-5.35-43.27-10.7-68"/><path class="cls-5" d="M251.34 552.46A14.63 14.63 0 11266 567.08a14.63 14.63 0 01-14.66-14.62zm134.16 0a14.63 14.63 0 1114.63 14.62 14.63 14.63 0 01-14.63-14.62z"/><path class="cls-6" d="M393.07 300.62c-14.76-11.52-18.4 1.35-20.71 9s-2.14 21.14 9.43 20.85c10.14 9.1 19.58-2.67 22.48-8.65s10.02-18.96-11.2-21.2z"/><path class="cls-7" d="M402.83 292.41c-5.09 1.79-7.95 4.23-9.57 8.47"/><path class="cls-8" d="M296.82 368.92A17.14 17.14 0 11314 386.05a17.13 17.13 0 01-17.18-17.13z"/><path class="cls-9" d="M178.13 376.48l47.47-12.05 19.23 75.78-47.46 12.05z"/><path class="cls-6" d="M188.13 384.83l32.66-8.29 2.52 9.93-32.66 8.29z"/><path class="cls-10" d="M193.39 405.55l32.66-8.3m-29.92 19.08L228.8 408M199 427.57l32.69-8.3m-29.95 19.17l12.82-3.25m14.73-3.75l5.14-1.3"/><path class="cls-9" d="M146.66 204.43l122.84-58.5 38.39 80.62L185.05 285z"/><path class="cls-11" d="M189.14 267.21l12.22-35.76 22.77 4.24 8.94-44.11 22 3.66 6.4-31.11"/><path class="cls-3" d="M197.05 233.79a6.34 6.34 0 118.45 3 6.35 6.35 0 01-8.45-3zm30.6-38.43a6.34 6.34 0 118.45 3 6.33 6.33 0 01-8.45-3zm232.69 67.98A21.7 21.7 0 11482 285a21.7 21.7 0 01-21.66-21.66z"/><path class="cls-11" d="M518.67 259.56a24.6 24.6 0 01.94 6.8 24.95 24.95 0 01-29.82 24.48"/><path class="cls-3" d="M468.88 279.82l-8.32 14.89 34.35 5.53-3.76-17.39"/><path class="cls-12" d="M476.92 263.34a5.12 5.12 0 115.12 5.12 5.12 5.12 0 01-5.12-5.12z"/><path class="cls-3" d="M512.17 258.22a5.12 5.12 0 115.12 5.12 5.12 5.12 0 01-5.12-5.12z"/><path class="cls-6" d="M100.91 100.21l32.09 8.68-31.6 117-32.12-8.67z"/><path class="cls-13" d="M79.51 179.48l17.67 4.77M73.9 200.23L91.58 205m-6.47-46.27l17.68 4.77M90.72 138l17.67 4.77m-12.07-25.55L114 122"/><path class="cls-9" d="M431.43 76l121.17 29.21-20 82.61-121.12-29.26z"/><path class="cls-6" d="M503.9 165.52a13.06 13.06 0 119.63 15.76 13.06 13.06 0 01-9.63-15.76z"/><path class="cls-6" d="M507.76 176.28L499.05 199l12.16-2.76 7.81 7.25 1.57-24.75"/><path class="cls-10" d="M438.59 97.39l95.66 23.1m-101.2-.43L490.82 134"/><path class="cls-8" d="M239.14 87.22l-13-14.08 18.7-4.23 18.71-4.23-5.7 18.32-5.69 18.32z"/><path class="cls-3" d="M497.43 382.62l-17.81 7.13 2.73-19 2.73-19 15.07 11.85 15.08 11.85z"/><path class="cls-11" d="M351.24 153.76a9.3 9.3 0 119.3 9.3 9.3 9.3 0 01-9.3-9.3z"/><path class="cls-3" d="M91.4 309.54a9.3 9.3 0 119.3 9.3 9.3 9.3 0 01-9.3-9.3z"/><path class="cls-5" d="M301.81 607.49H364s.29 64.25 0 89.54c0 10.43-62.17 9.23-62.17 0z"/><path class="cls-14" d="M270 546.07c0-47.73 29-86.41 64.83-86.41s64.84 38.68 64.84 86.41-29 86.41-64.84 86.41S270 593.79 270 546.07z"/><path class="cls-2" d="M369.84 453.46c-16.47 38.27-84.71 75.64-113.45 84.38-4.54-22.84 24.87-120.18 113.45-84.38z"/><path class="cls-2" d="M333.37 452.28C320.9 457 361.44 521.87 410 537.84c19.85-28.24-25.87-86.9-76.63-85.56z"/><path class="cls-3" d="M426.07 17.88A17.14 17.14 0 11443.2 35a17.13 17.13 0 01-17.13-17.12z"/><path class="cls-10" d="M130.62 468.3a16 16 0 1116 16 16 16 0 01-16-16z"/><path class="cls-11" d="M485.13 461.56a9.31 9.31 0 119.31 9.3 9.3 9.3 0 01-9.31-9.3z"/></g></g></svg>