<svg xmlns="http://www.w3.org/2000/svg" viewBox="0 0 724.92 763.38"><defs><style>.cls-2,.cls-8{fill-rule:evenodd}.cls-8{fill:#e49d75}</style></defs><g id="Layer_2" data-name="Layer 2"><g id="Layer_1-2" data-name="Layer 1"><path d="M623.69 127.76c68.48 87.87 93.18 208.47 67.57 316.49S589.75 647.42 503.55 668.63s-182.72-31.51-255-85.14c-72.25-53.79-120.43-108.33-135.28-171.2s3.79-133.93 45.6-215.6 107-174.38 195.6-193c88.63-18.8 200.74 36.2 269.22 124.07z" fill="#f2f2f2"/><path class="cls-2" d="M389.8 136.51c.19 10.15 4.43 27.12 4.62 39.67s-8.49 25.64-11.07 31.91 11.43 26.57 11.43 26.57L426.33 217 425 161.6s-35.38-35.24-35.2-25.09z"/><path d="M409.05 180.59c20.46 13.25-6 63.41-17.88 72.44s-43.81-12.72-44.25-23.89 41.67-61.79 62.13-48.55z" fill="#ffc78e" fill-rule="evenodd"/><path d="M43.75 173.37L0 449.74l138.49 21.92 25.44-18.4 18.52 25.36 498.73 78.94 43.74-276.37-497.34-78.72L200.53 222l-19.68-27z" fill="#e0e0e0" fill-rule="evenodd"/><path d="M163.72 454.6l37-233.71" fill="none" stroke="#f3f3f3" stroke-linejoin="round" stroke-width="4.41"/><path d="M103.41 342.83l20.86 3.3-14.34 90.61-20.86-3.3zM113.68 278l20.85 3.3-7.32 46.25-20.85-3.3zm134.74-17.95l389.86 61.71L634.6 345l-389.86-61.71z" fill="#f3f3f3" fill-rule="evenodd"/><path d="M244.73 318.67l314.93 49.85m-320.08-16.28l224.83 35.59m-228.8-2.39l354.73 56.15" stroke-linecap="round" fill="none" stroke="#f3f3f3" stroke-linejoin="round" stroke-width="4.41"/><path class="cls-2" d="M418.31 56.42c37.24 0 50.94 32.23 51.52 53.07 0 12.73-3.66 25.08-1 34.73-.2 23.92 25.66 46.69 25.66 83.73 0 66-51.33 57.7-77.76 58.66s-4.85-61.2-4.46-73.17.89-39 1.66-50.18-30.77-33.9-30.39-43.74-18.09-61.36 34.77-63.1z"/><path class="cls-8" d="M593.68 678.2l16.84 11.42 15.24-17.13-15.19-15.23zm-296.41 35.63l-7.16 17.38 20.51 9.85 8.14-16.41z"/><path d="M482.18 336.72c8.9 8.48 13.5 140 12.24 166.37 6.67 14.83 118 154.38 118 154.38l-18.58 23.38s-151.87-116-160-129.24-94.33-138.44 48.34-214.89z" fill="#5fc5d1" fill-rule="evenodd"/><path d="M381.55 361c-7.16 19.93-35.82 133.33-40.81 165.42s-45.17 187.85-45.17 187.85l23.05 12.47S498.61 406.4 481 347.83s-92.28-6.75-99.45 13.17z" fill="#6bd5e1" fill-rule="evenodd"/><path class="cls-8" d="M378.76 111.15c1.79-25.36 19.33-44.78 39.17-43.38s34.48 23.1 32.69 48.46-19.33 44.77-39.18 43.38-34.44-23.1-32.68-48.46z"/><path d="M420.52 173.78c56.64-13.6 75.65 139 64.39 174.81-10.08 25.89-79.46 35.38-106.74 22.33-10.47-8.3-35.38-178.48 42.35-197.14z" fill="#ffd98e" fill-rule="evenodd"/><path class="cls-8" d="M429 264.6c2.26 14.22 6.32 61 7 72s-13.1 75-17.84 83.78c4.74 6.54 18.74 18.29 18.74 18.29S463.1 385 473.33 342c3.23-13.57-6.85-78.34-8.66-83.53s-37.94-8.1-35.67 6.13z"/><path class="cls-2" d="M313 738.06l-10.58 25.32-69.77-27.46 4.52-11.72 52.55 3.24zm311-68.95l21.67 16.82L601 746.12l-10.13-7.42 16.84-49.88zM397.09 69.16c.19 10.61 6.82 38.69 42.45 53.25 22.19 9.07 20.45 0 20.45 0L446.87 73l-19.68-11.56s-30.29-2.89-30.1 7.72z"/><path class="cls-8" d="M430.35 123.61a9.82 9.82 0 119.82 9.82 9.82 9.82 0 01-9.82-9.82z"/><path d="M436.28 190.46c24.12-3.55 37.36 51.59 34.4 66.22-8.62 10.06-32.25 13.7-49 11.26-7.68-8.1-9.51-73.94 14.6-77.48z" fill="#ffe4ad" fill-rule="evenodd"/><path class="cls-8" d="M408.21 138.48h30v42.81c-4.63 4.12-21.4 8.27-30-.51z"/><text transform="rotate(-80.93 284.6 178.557)" font-size="40.87" font-family="SofiaPro-Bold,Sofia Pro" font-weight="700" fill="#f3f3f3">ADMI<tspan x="106.14" y="0" letter-spacing="-.03em">T</tspan><tspan x="127.68" y="0" letter-spacing="0"> ONE</tspan></text></g></g></svg>