<svg xmlns="http://www.w3.org/2000/svg" width="654.81" height="628.4"><g data-name="Layer 2"><g data-name="Layer 1"><path d="M285.44 280.19c0-6.8 10.7-12.3 23.89-12.3s23.89 5.5 23.89 12.3-10.7 12.29-23.89 12.29-23.89-5.48-23.89-12.29z" fill="#8dc5e0" fill-rule="evenodd"/><path d="M248.11 566l7.25 23.34 30.08-6.87-2.95-29.68z" fill="#ff3274" fill-rule="evenodd"/><path d="M168.27 282.94h457.48a4.42 4.42 0 014.42 4.42v8a4.42 4.42 0 01-4.42 4.42H168.27a4.42 4.42 0 01-4.42-4.42v-8a4.42 4.42 0 014.42-4.42z" fill="#aadaf1" fill-rule="evenodd"/><path d="M230.55 300.18L138 584m167.66-283.82L213.15 584m92.51-283.82L398.16 584M230.55 300.18L323.05 584" fill="none" stroke="#aadaf1" stroke-linecap="round" stroke-linejoin="round" stroke-width="2"/><path d="M147.78 537.54l-9.74 22L165 571.09l12-22.24z" fill="#ff3274" fill-rule="evenodd"/><path d="M137.42 557.51l28.5 12.34s35.52 33.28 51.91 41.39c-.05 7.39-1 10.82-6.68 12.93-2.54.94-48.45-17.44-48.45-17.44l-7.7-8.26-29.7-13.66z" fill="#6a3416" fill-rule="evenodd"/><path d="M154.63 551.71a3.63 3.63 0 113.63 3.63 3.62 3.62 0 01-3.63-3.63zm-13.73 4.73a3.64 3.64 0 113.63 3.64 3.64 3.64 0 01-3.63-3.64zm18.82 6.39a3.63 3.63 0 113.63 3.63 3.63 3.63 0 01-3.63-3.63z" fill="none" stroke="#fff" stroke-linecap="round" stroke-linejoin="round" stroke-width="2"/><path d="M123.06 579.56l29.07 12.93a3.12 3.12 0 011.62 4.09l-2.54 5.71a3.1 3.1 0 01-4.12 1.52L118 590.88a3.1 3.1 0 01-1.62-4.08l2.53-5.71a3.12 3.12 0 014.15-1.53z" fill="#3c1b09" fill-rule="evenodd"/><path d="M73.89 327c66.21-18.65 161.19-8.32 181.68 20.13 7.32 10.16 4.84 26.06 3 32.05S179.25 551.4 179.25 551.4l-34.74-13.21 34.14-135S65.66 329.3 73.89 327z" fill="#c4c4c4" fill-rule="evenodd"/><path d="M156.81 542.86L196.8 414M148 524.33l37.28 14" fill="none" stroke="#8d8d8d" stroke-linecap="round" stroke-linejoin="round" stroke-width="2"/><path d="M254.76 587.19l29.86-8.52s48.57 3.23 66.39-.89c4.65 5.75 6.12 9 3 14.24-1.37 2.33-48.53 17.22-48.53 17.22l-11.19-1.51L262.7 616z" fill="#6a3416" fill-rule="evenodd"/><path d="M257.63 613.36l30.68-8.43a3.1 3.1 0 013.84 2.12l1.66 6a3.1 3.1 0 01-2.22 3.79l-30.68 8.43a3.1 3.1 0 01-3.84-2.12l-1.66-6a3.1 3.1 0 012.22-3.79z" fill="#3c1b09" fill-rule="evenodd"/><path d="M268.1 576.74a3.64 3.64 0 113.63 3.63 3.63 3.63 0 01-3.63-3.63zm6.51-11.74a3.64 3.64 0 113.63 3.63 3.64 3.64 0 01-3.63-3.63zm-19.85 9.15a3.63 3.63 0 113.63 3.63 3.63 3.63 0 01-3.63-3.63z" fill="none" stroke="#fff" stroke-linecap="round" stroke-linejoin="round" stroke-width="2"/><path d="M19.63 408.63h151.8a19.63 19.63 0 0119.63 19.63 19.63 19.63 0 01-19.63 19.63H19.63A19.63 19.63 0 010 428.26a19.63 19.63 0 0119.63-19.63z" fill="#aadaf1" fill-rule="evenodd"/><path d="M89.17 434.48h12.72a3.8 3.8 0 013.8 3.8v140.6a3.8 3.8 0 01-3.8 3.8H89.17a3.8 3.8 0 01-3.8-3.8v-140.6a3.8 3.8 0 013.8-3.8z" fill="#aadaf1" fill-rule="evenodd"/><path d="M84.05 537.54h23a6.26 6.26 0 016.26 6.26v33.94A6.26 6.26 0 01107 584H84a6.26 6.26 0 01-6.26-6.26V543.8a6.26 6.26 0 016.31-6.26z" fill="#aadaf1" fill-rule="evenodd"/><path d="M19.32 608.17v-6.63A17.54 17.54 0 0136.86 584h58.67" fill="none" stroke="#aadaf1" stroke-linecap="round" stroke-linejoin="round" stroke-width="2"/><path d="M171.57 608.17v-6.63A17.55 17.55 0 00154 584H95.35" fill="none" stroke="#aadaf1" stroke-linecap="round" stroke-linejoin="round" stroke-width="2"/><path d="M66.78 608.17v-8c0-8.93 4.65-16.17 10.38-16.17h36.74c5.73 0 10.38 7.24 10.38 16.17v8M9.71 617.79a9.61 9.61 0 119.61 9.61 9.62 9.62 0 01-9.61-9.61z" fill="none" stroke="#aadaf1" stroke-linecap="round" stroke-linejoin="round" stroke-width="2"/><path d="M57.17 617.79a9.61 9.61 0 119.61 9.61 9.62 9.62 0 01-9.61-9.61zm67.11-9.62a9.62 9.62 0 11-9.61 9.62 9.62 9.62 0 019.61-9.62m37.72 9.62a9.61 9.61 0 119.61 9.61 9.62 9.62 0 01-9.61-9.61z" fill="none" stroke="#aadaf1" stroke-linecap="round" stroke-linejoin="round" stroke-width="2"/><path d="M25.32 287.87C-35.25 414.39 87 417.8 129.9 417.17s54.19-3.86 65.8-6.67c3.71 11.24 48.18 156.8 48.18 156.8l39.05-11.8s-29.85-184.92-36.59-197.41c-18.51-34.34-128-36.2-141.85-35.37S33 271.83 25.32 287.87z" fill="#c4c4c4" fill-rule="evenodd"/><path d="M29.1 305.16c-41.49 103.55 136.45 97.31 175.37 85.45 5.82 16.65 54 171.41 54 171.41m-4.36-171.22a56.7 56.7 0 01-45.25-53.95" fill="none" stroke="#8d8d8d" stroke-linecap="round" stroke-linejoin="round" stroke-width="2"/><path d="M177.07 414.3a172.89 172.89 0 0018.63-3.8c1.54 4.66 10.09 32.43 19.56 63.33m38.56-85.05c-3.26-16.27-6-27.87-7.48-30.69-17.4-32.26-115.16-35.86-138.35-35.48m173.07 221.45l-40.54 12.25" fill="none" stroke="#8d8d8d" stroke-linecap="round" stroke-linejoin="round" stroke-width="2"/><path d="M98.67 91.68a20.72 20.72 0 1120.71 20.72 20.71 20.71 0 01-20.71-20.72z" fill="#6a3416" fill-rule="evenodd"/><path d="M294.48 262.25c3.41-2.8 12.65-9.63 15.61-9.59s11.92 8.46 12.12 10.67-2.65 5.7-4.35 5.95-7.17-5-8.37-4.53-3.84 3.27-4.61 4.51-13.8-4.26-10.4-7.01zm-122.2-54.9l20.46 20.88S208.22 195 219 177.42c-2.18-3.14-6-15.65-5.51-18s11.75-24.53 14.47-23.24 5.26 5.62 3.87 10c1.61-5.77 4.33-13.75 6.73-14.54s7.45.25 7.23 4.3c1.15-2.65 3.18-4.51 5.5-4.61 2-.09 6.08 1.62 6.36 4.14.34 3.15-4.16 10.67-4.71 11.74 2.1-2.86 2.08-3 3.34-3 2.53.09 6.81 3.85 4.72 9.28s-12.42 30.77-20.42 31.85c.37 4.92-23.47 73.57-23.47 73.57l-36.12-1.44-26.31-34.8z" fill="#f77f89" fill-rule="evenodd"/><path d="M101.12 131.92c-66.43.08-88.63 156-81.69 166.69 5.09 7.84 65.35 30.89 86 23.81 7.29-2.5 26.26-41.45 37-80.75 11.45-9.4 33.12-27.2 36.65-30.63-1-7.53-18.41-37.87-36.44-51.31-6.23-14.23-17.79-27.81-41.52-27.81z" fill="#3b4161" fill-rule="evenodd"/><path d="M118.3 237.86s31.71 40 40.05 43.25 98.42 2.21 105 1.44 5.38 4.25 11.33 4.57c6.16.34 9.71-5.11 10.55-7.86 3.76 4.18 10.39 10.61 14.74 8.37 3.08-1.6 3.12-3 1-5.21 3 1.73 8.42 4.27 10.61 2.56 3.52-2.74 3.85-5.3 2.66-7.43-3.67-6.59-15.49-15.92-18.3-17-3.24-1.28-13.11 2.24-17.86 2.53-21.53 1.33-75.82-12.06-93.63-12.87-2.62-5-29.77-37.83-31.87-41.11-7.45 6.37-34.28 28.76-34.28 28.76zm-8.85-138.01a31.46 31.46 0 1131.45 31.45 31.46 31.46 0 01-31.45-31.45z" fill="#f77f89" fill-rule="evenodd"/><path d="M113.67 93c.13 4.89-10.11 35.81-14.15 41.73 2 4.73 21.57 16.59 30.56 14.06 1-6 4.35-18.06 6.42-20.74S113.54 88.07 113.67 93z" fill="#f77f89" fill-rule="evenodd"/><path d="M149.62 33.54a20.61 20.61 0 00-15.69 7.32 23.33 23.33 0 00-8.09-1.5 23.45 23.45 0 00-22.72 30.43 13.75 13.75 0 00-4.44 10.1 14.05 14.05 0 0011.5 13.72c.16-.77.16-1.31.41-2.19.68-2.34 10.86-6.62 12-5.85a7.94 7.94 0 003 1.32 2.4 2.4 0 00.28 0 23.7 23.7 0 0020.69-12.25 21 21 0 003.09.31 20.72 20.72 0 1020.72-20.72 20.72 20.72 0 00-20.75-20.69z" fill="#6a3416" fill-rule="evenodd"/><path d="M101.11 80.79A12.18 12.18 0 11113.29 93a12.18 12.18 0 01-12.18-12.21z" fill="#f77f89" fill-rule="evenodd"/><path d="M38.58 292.48c-1.31-19.34 17.17-91.19 31-112.57m9.95 17.01c3.22 6.65 19.15 36.1 32.65 46.49 5.15-4.88 42.27-36.51 42.27-36.51-4.74-8.81-27.53-36.43-34.92-43.2m-14.34 72.99l44.62-36.87m-12.26-49.25a9.65 9.65 0 01-1.38 2.76c-5.3 7.4-20.24 6.59-33.37-1.8m39.97 8.27c2.53 6.58 6 21.93 4.53 36.62m11.9 21.21l16.8-14.91M86 279c5.55-.87 35.85-.25 30.25 1.65s-16.08 3.25-11.41 4.35a115.32 115.32 0 0013.61 2.34" fill="none" stroke="#737999" stroke-linecap="round" stroke-linejoin="round" stroke-width="2"/><path d="M157.58 100.68c-.31 2.77.3 9 2.39 11.72" fill="none" stroke="#b5545c" stroke-linecap="round" stroke-linejoin="round" stroke-width="2"/><path d="M140.72 97c1-2.37 3-3.8 4.39-3.19s1.67 3 .64 5.39-3 3.8-4.39 3.19-1.68-3.01-.64-5.39zm23.75 5.41c1-2.37 3-3.8 4.39-3.2s1.67 3 .64 5.39-3 3.8-4.39 3.19-1.68-3.02-.64-5.38z" fill="#b5545c" fill-rule="evenodd"/><path d="M140.6 119.81a10.24 10.24 0 01-7.1-8.82m1.61 19.78a31.48 31.48 0 01-20.55-13.72m2.98-24.85a12 12 0 01-4.25.77 12.2 12.2 0 01-3.28-.45m.93-4.39a7.13 7.13 0 119-6.88M218 255.29l-33.27-5.08-20.65-26.52m67.18-49.14c1.24-2.7 4.68-8.62 3.49-11.2s-9.43-6.07-8.42-8.54 5.59-9.15 5.59-9.15m13.82-9.74l-6.31 12.9m13.81-1.62l-5.13 7.28m48.48 106.38l9.16 7M300.84 282l-6.84-6.32" fill="none" stroke="#b5545c" stroke-linecap="round" stroke-linejoin="round" stroke-width="2"/><path d="M259.75 37.17h11.53c.54 0 1 .64 1 1.43v7.19c0 .79-.45 1.42-1 1.42h-11.53c-.55 0-1-.63-1-1.42V38.6c.01-.79.45-1.43 1-1.43z" fill="#ff3274" fill-rule="evenodd"/><path d="M277.26 42.65v4.42c0 .13-.09.18-.19.12L273.23 45l-3.83-2.21c-.11-.06-.11-.16 0-.22l3.83-2.22 3.84-2.21a.12.12 0 01.19.11z" fill="#ff3274" fill-rule="evenodd"/><path d="M251 42.19a17 17 0 1117 17 17 17 0 01-17-17z" fill="none" stroke="#ff3274" stroke-linecap="round" stroke-linejoin="round" stroke-width="2"/><path d="M29.09 1h243.59a24.73 24.73 0 0124.74 24.74v124.07a24.74 24.74 0 01-24.74 24.74H29.09a24.74 24.74 0 01-24.73-24.74V25.74A24.73 24.73 0 0129.09 1zm266.74 15.87H6.2" fill="none" stroke="#9b9b9b" stroke-linecap="round" stroke-linejoin="round" stroke-width="2"/><path d="M22.14 9.23a3.52 3.52 0 113.52 3.51 3.52 3.52 0 01-3.52-3.51zm13.86 0a3.52 3.52 0 113.52 3.51A3.51 3.51 0 0136 9.23zm13.89 0a3.52 3.52 0 113.52 3.51 3.52 3.52 0 01-3.52-3.51z" fill="none" stroke="#ff3274" stroke-linecap="round" stroke-linejoin="round" stroke-width="2"/><path d="M486.2 300.18L393.69 584m167.62-283.82L468.8 584m92.51-283.82L653.81 584M486.2 300.18L578.7 584" fill="none" stroke="#aadaf1" stroke-linecap="round" stroke-linejoin="round" stroke-width="2"/><path d="M326 115.4h143.39a11.19 11.19 0 0111.19 11.19V245a11.19 11.19 0 01-11.19 11.19H326A11.19 11.19 0 01314.83 245V126.59A11.19 11.19 0 01326 115.4z" fill="#aadaf1" fill-rule="evenodd"/><path d="M326 115.39a11.18 11.18 0 00-11.19 11.18V245A11.19 11.19 0 00326 256.14h7.19c-.06-.68-.22-1.34-.22-2V115.39zm51.82 105.89h48.41l27.11 61.66h-50.12zm161.72 18.21h39.88v43.45h-39.88z" fill="#8dc5e0" fill-rule="evenodd"/><path d="M568.79 261.21a10.29 10.29 0 1110.29 10.29 10.29 10.29 0 01-10.29-10.29z" fill="none" stroke="#8dc5e0" stroke-linecap="round" stroke-linejoin="round" stroke-width="2"/><path d="M539.54 246.89h39.54" fill="none" stroke="#aadaf1" stroke-linecap="round" stroke-linejoin="round" stroke-width="2"/><path d="M29.22 1h243.59a24.74 24.74 0 0124.74 24.74v124.07a24.74 24.74 0 01-24.74 24.74H29.22a24.74 24.74 0 01-24.73-24.74V25.74A24.73 24.73 0 0129.22 1z" fill="#fff" fill-rule="evenodd" opacity=".25" style="isolation:isolate"/></g></g></svg>