<svg xmlns="http://www.w3.org/2000/svg" xmlns:xlink="http://www.w3.org/1999/xlink" viewBox="0 0 64 64"><defs><style>.cls-1{fill:url(#linear-gradient);}.cls-2{fill:#cf4055;}.cls-3{fill:#231f20;}.cls-4{fill:url(#linear-gradient-2);}.cls-5{fill:url(#linear-gradient-3);}.cls-6{fill:url(#linear-gradient-4);}.cls-7{fill:url(#linear-gradient-5);}.cls-8{fill:url(#linear-gradient-6);}.cls-9{fill:url(#linear-gradient-8);}.cls-10{fill:url(#linear-gradient-10);}.cls-11{fill:url(#linear-gradient-11);}.cls-12{fill:url(#linear-gradient-12);}.cls-13{fill:url(#linear-gradient-13);}.cls-14{fill:url(#linear-gradient-15);}.cls-15{fill:url(#linear-gradient-17);}</style><linearGradient id="linear-gradient" x1="8.62" y1="20.5" x2="8.62" y2="16.5" gradientUnits="userSpaceOnUse"><stop offset="0" stop-color="#da5466"/><stop offset="1" stop-color="#f4929c"/></linearGradient><linearGradient id="linear-gradient-2" x1="32" y1="52" x2="32" y2="12" xlink:href="#linear-gradient"/><linearGradient id="linear-gradient-3" x1="32" y1="7" x2="32" y2="1" xlink:href="#linear-gradient"/><linearGradient id="linear-gradient-4" x1="32" y1="63" x2="32" y2="57" xlink:href="#linear-gradient"/><linearGradient id="linear-gradient-5" x1="4" y1="35" x2="4" y2="29" xlink:href="#linear-gradient"/><linearGradient id="linear-gradient-6" x1="60" y1="35" x2="60" y2="29" xlink:href="#linear-gradient"/><linearGradient id="linear-gradient-8" x1="18.5" y1="10.62" x2="18.5" y2="6.62" xlink:href="#linear-gradient"/><linearGradient id="linear-gradient-10" x1="45.5" y1="57.38" x2="45.5" y2="53.38" xlink:href="#linear-gradient"/><linearGradient id="linear-gradient-11" x1="18.5" y1="57.38" x2="18.5" y2="53.38" xlink:href="#linear-gradient"/><linearGradient id="linear-gradient-12" x1="45.5" y1="10.62" x2="45.5" y2="6.62" xlink:href="#linear-gradient"/><linearGradient id="linear-gradient-13" x1="8.62" y1="47.5" x2="8.62" y2="43.5" xlink:href="#linear-gradient"/><linearGradient id="linear-gradient-15" x1="55.38" y1="20.5" x2="55.38" y2="16.5" xlink:href="#linear-gradient"/><linearGradient id="linear-gradient-17" x1="55.38" y1="47.5" x2="55.38" y2="43.5" xlink:href="#linear-gradient"/></defs><title>Corona Virus</title><g id="Corona_Virus" data-name="Corona Virus"><circle class="cls-1" cx="8.62" cy="18.5" r="2"/><path class="cls-2" d="M49.43,22.75a1,1,0,0,1-.5-1.88l4.37-2.52a1,1,0,0,1,1,1.75l-4.37,2.52A1,1,0,0,1,49.43,22.75Z"/><path class="cls-2" d="M32,13a1,1,0,0,1-1-1V7a1,1,0,0,1,2,0v5A1,1,0,0,1,32,13Z"/><path class="cls-2" d="M32,13a1,1,0,0,1-1-1V7a1,1,0,0,1,2,0v5A1,1,0,0,1,32,13Z"/><path class="cls-2" d="M14.69,23a1,1,0,0,1-.5-.13l-4.34-2.5a1,1,0,1,1,1-1.74l4.34,2.5a1,1,0,0,1-.5,1.87Z"/><path class="cls-2" d="M10.2,45.41a1,1,0,0,1-.88-.5,1,1,0,0,1,.37-1.38L14.06,41a1,1,0,1,1,1,1.75L10.7,45.28A1,1,0,0,1,10.2,45.41Z"/><path class="cls-2" d="M53.65,45.5a1,1,0,0,1-.5-.13l-4.34-2.5a1,1,0,0,1,1-1.74l4.34,2.5a1,1,0,0,1-.5,1.87Z"/><path class="cls-3" d="M32,58a1,1,0,0,1-1-1V52a1,1,0,0,1,2,0v5A1,1,0,0,1,32,58Z"/><path class="cls-2" d="M32,58a1,1,0,0,1-1-1V52a1,1,0,0,1,2,0v5A1,1,0,0,1,32,58Z"/><circle class="cls-4" cx="32" cy="32" r="20"/><path class="cls-2" d="M52,32a19.93,19.93,0,0,1-9.07,16.74,16.61,16.61,0,0,1-1.73,1,19.93,19.93,0,0,1-18.4,0,16.61,16.61,0,0,1-1.73-1A19.93,19.93,0,0,1,12,32a18.86,18.86,0,0,1,.1-2A20,20,0,0,0,22.89,45.81a16.48,16.48,0,0,0,1.54.7,20,20,0,0,0,15.14,0,16.48,16.48,0,0,0,1.54-.7A20,20,0,0,0,51.9,30,18.86,18.86,0,0,1,52,32Z"/><circle class="cls-5" cx="32" cy="4" r="3"/><circle class="cls-6" cx="32" cy="60" r="3"/><circle class="cls-7" cx="4" cy="32" r="3"/><circle class="cls-8" cx="60" cy="32" r="3"/><circle class="cls-5" cx="32" cy="4" r="3"/><circle class="cls-9" cx="18.5" cy="8.62" r="2"/><circle class="cls-6" cx="32" cy="60" r="3"/><circle class="cls-10" cx="45.5" cy="55.38" r="2"/><path class="cls-2" d="M23.5,18.28a1,1,0,0,1-.87-.5l-4-6.93a1,1,0,0,1,1.74-1l4,6.93A1,1,0,0,1,24,18.14,1,1,0,0,1,23.5,18.28Z"/><path class="cls-2" d="M45.09,54.49a1,1,0,0,1-.5.14,1,1,0,0,1-.87-.51L41.2,49.75l-1.51-2.6a.92.92,0,0,1-.12-.64,16.48,16.48,0,0,0,1.54-.7.92.92,0,0,1,.32.33l1.5,2.6,2.53,4.38A1,1,0,0,1,45.09,54.49Z"/><circle class="cls-11" cx="18.5" cy="55.38" r="2"/><circle class="cls-12" cx="45.5" cy="8.62" r="2"/><path class="cls-2" d="M24.43,46.51a.92.92,0,0,1-.12.64l-1.51,2.6-2.52,4.37a1,1,0,0,1-.87.51,1,1,0,0,1-.5-.14,1,1,0,0,1-.37-1.37l2.53-4.38,1.5-2.6a.92.92,0,0,1,.32-.33A16.48,16.48,0,0,0,24.43,46.51Z"/><path class="cls-2" d="M40.56,18a1,1,0,0,1-.87-1.51l4-7a1,1,0,0,1,1.74,1l-4,7A1,1,0,0,1,40.56,18Z"/><circle class="cls-13" cx="8.62" cy="45.5" r="2"/><circle class="cls-13" cx="8.62" cy="45.5" r="2"/><circle class="cls-14" cx="55.38" cy="18.5" r="2"/><circle class="cls-14" cx="55.38" cy="18.5" r="2"/><circle class="cls-15" cx="55.38" cy="45.5" r="2"/><circle class="cls-15" cx="55.38" cy="45.5" r="2"/><circle class="cls-1" cx="8.62" cy="18.5" r="2"/><circle class="cls-2" cx="28.5" cy="25.5" r="3.5"/><circle class="cls-2" cx="36" cy="40" r="3"/><circle class="cls-2" cx="40.5" cy="27.5" r="2.5"/><circle class="cls-2" cx="23" cy="36" r="2"/><path class="cls-2" d="M14.88,32.82H6.82a1,1,0,1,1,0-2h8.06a1,1,0,1,1,0,2Z"/><path class="cls-2" d="M57.18,32.82H49.12a1,1,0,1,1,0-2h8.06a1,1,0,1,1,0,2Z"/><circle class="cls-9" cx="18.5" cy="8.62" r="2"/><circle class="cls-12" cx="45.5" cy="8.62" r="2"/><circle class="cls-8" cx="60" cy="32" r="3"/><circle class="cls-10" cx="45.5" cy="55.38" r="2"/><circle class="cls-11" cx="18.5" cy="55.38" r="2"/><circle class="cls-7" cx="4" cy="32" r="3"/></g></svg>