<svg xmlns="http://www.w3.org/2000/svg" xmlns:xlink="http://www.w3.org/1999/xlink" viewBox="0 0 64 64"><defs><style>.cls-1{fill:url(#linear-gradient);}.cls-2{fill:url(#linear-gradient-3);}.cls-3{fill:url(#linear-gradient-4);}.cls-4{fill:url(#linear-gradient-5);}.cls-5{fill:url(#linear-gradient-6);}.cls-6{fill:#9ca0ad;}.cls-7{fill:#42455e;}.cls-8{fill:#8288a1;}.cls-9{fill:url(#linear-gradient-7);}.cls-10{fill:#cf4055;}.cls-11{fill:url(#linear-gradient-8);}</style><linearGradient id="linear-gradient" x1="28" y1="53" x2="28" y2="1" gradientUnits="userSpaceOnUse"><stop offset="0" stop-color="#a0a6ba"/><stop offset="1" stop-color="#c6ccda"/></linearGradient><linearGradient id="linear-gradient-3" x1="25" y1="63" x2="25" y2="59" gradientUnits="userSpaceOnUse"><stop offset="0" stop-color="#474f72"/><stop offset="1" stop-color="#878c9f"/></linearGradient><linearGradient id="linear-gradient-4" x1="22.6" y1="59" x2="22.6" y2="53" xlink:href="#linear-gradient-3"/><linearGradient id="linear-gradient-5" x1="28" y1="47" x2="28" y2="7" xlink:href="#linear-gradient-3"/><linearGradient id="linear-gradient-6" x1="28" y1="22" x2="28" y2="7" xlink:href="#linear-gradient-3"/><linearGradient id="linear-gradient-7" x1="49" y1="63" x2="49" y2="35" gradientUnits="userSpaceOnUse"><stop offset="0" stop-color="#9dd5df"/><stop offset="1" stop-color="#c3e1f5"/></linearGradient><linearGradient id="linear-gradient-8" x1="49" y1="56" x2="49" y2="42" gradientUnits="userSpaceOnUse"><stop offset="0" stop-color="#da5466"/><stop offset="1" stop-color="#f4929c"/></linearGradient></defs><title>Death</title><g id="Death"><path class="cls-1" d="M35.58,53H9V20a19,19,0,0,1,38,0V35.14"/><path class="cls-1" d="M35.58,53H9V20a19,19,0,0,1,38,0V35.14"/><path class="cls-2" d="M39.21,59H4.12A3.12,3.12,0,0,0,1,62.12V63H49Z"/><polygon class="cls-3" points="35.58 53 9 53 6 53 6 59 39.21 59 35.58 53"/><path class="cls-4" d="M41,37.52V20a13,13,0,0,0-26,0V47H35.14"/><path class="cls-5" d="M41,20v2a13,13,0,0,0-26,0V20a13,13,0,0,1,26,0Z"/><polygon class="cls-6" points="37 22 30 22 30 15 26 15 26 22 19 22 19 26 26 26 26 41 30 41 30 26 37 26 37 22"/><rect class="cls-7" x="6" y="57" width="36" height="2"/><rect class="cls-8" x="9" y="51" width="28" height="2"/><rect class="cls-7" x="15" y="45" width="25" height="2"/><circle class="cls-9" cx="49" cy="49" r="14"/><path class="cls-10" d="M54,45.05a1,1,0,0,1-.71-.29,1,1,0,0,1,0-1.42l2-2.05a1,1,0,0,1,1.42,1.42l-2.05,2A1,1,0,0,1,54,45.05Z"/><path class="cls-10" d="M42,57a1,1,0,0,1-.71-.29,1,1,0,0,1,0-1.42l2.05-2a1,1,0,0,1,1.42,1.42l-2,2.05A1,1,0,0,1,42,57Z"/><path class="cls-10" d="M56,57a1,1,0,0,1-.71-.29l-2-2.05a1,1,0,0,1,1.42-1.42l2.05,2a1,1,0,0,1,0,1.42A1,1,0,0,1,56,57Z"/><path class="cls-10" d="M44.05,45.05a1,1,0,0,1-.71-.29l-2.05-2a1,1,0,0,1,1.42-1.42l2,2.05a1,1,0,0,1,0,1.42A1,1,0,0,1,44.05,45.05Z"/><circle class="cls-11" cx="49" cy="49" r="7"/><path class="cls-10" d="M56,49a7,7,0,0,1-14,0,5.47,5.47,0,0,1,.08-1,7,7,0,0,0,13.84,0A5.47,5.47,0,0,1,56,49Z"/><path class="cls-10" d="M49,44a1,1,0,0,1-1-1V40a1,1,0,0,1,2,0v3A1,1,0,0,1,49,44Z"/><path class="cls-10" d="M49,59a1,1,0,0,1-1-1V55a1,1,0,0,1,2,0v3A1,1,0,0,1,49,59Z"/><path class="cls-10" d="M58,50H55a1,1,0,0,1,0-2h3a1,1,0,0,1,0,2Z"/><path class="cls-10" d="M43,50H40a1,1,0,0,1,0-2h3a1,1,0,0,1,0,2Z"/><circle class="cls-10" cx="46.5" cy="47.5" r="1.5"/><circle class="cls-10" cx="52" cy="48" r="1"/><circle class="cls-10" cx="49" cy="51" r="1"/></g></svg>