<svg xmlns="http://www.w3.org/2000/svg" xmlns:xlink="http://www.w3.org/1999/xlink" viewBox="0 0 64 64"><defs><style>.cls-1{fill:url(#linear-gradient);}.cls-2{fill:url(#linear-gradient-2);}.cls-3{fill:#cf4055;}.cls-4{fill:url(#linear-gradient-3);}.cls-5{fill:url(#linear-gradient-4);}.cls-6{fill:url(#linear-gradient-5);}.cls-7{fill:url(#linear-gradient-6);}.cls-8{fill:url(#linear-gradient-7);}.cls-9{fill:url(#linear-gradient-8);}.cls-10{fill:#77cacb;}.cls-11{fill:url(#linear-gradient-11);}.cls-12{fill:url(#linear-gradient-12);}.cls-13{fill:url(#linear-gradient-13);}.cls-14{fill:url(#linear-gradient-14);}.cls-15{fill:url(#linear-gradient-15);}.cls-16{fill:url(#linear-gradient-16);}.cls-17{fill:url(#linear-gradient-17);}.cls-18{fill:url(#linear-gradient-18);}.cls-19{fill:url(#linear-gradient-19);}.cls-20{fill:url(#linear-gradient-20);}</style><linearGradient id="linear-gradient" x1="32" y1="7" x2="32" y2="1" gradientUnits="userSpaceOnUse"><stop offset="0" stop-color="#da5466"/><stop offset="1" stop-color="#f4929c"/></linearGradient><linearGradient id="linear-gradient-2" y1="63" y2="57" xlink:href="#linear-gradient"/><linearGradient id="linear-gradient-3" x1="8.62" y1="47.5" x2="8.62" y2="43.5" xlink:href="#linear-gradient"/><linearGradient id="linear-gradient-4" x1="55.38" y1="20.5" x2="55.38" y2="16.5" xlink:href="#linear-gradient"/><linearGradient id="linear-gradient-5" x1="55.38" y1="47.5" x2="55.38" y2="43.5" xlink:href="#linear-gradient"/><linearGradient id="linear-gradient-6" x1="8.62" y1="20.5" x2="8.62" y2="16.5" xlink:href="#linear-gradient"/><linearGradient id="linear-gradient-7" y1="54" y2="10" xlink:href="#linear-gradient"/><linearGradient id="linear-gradient-8" x1="32" y1="49" x2="32" y2="15" gradientUnits="userSpaceOnUse"><stop offset="0" stop-color="#9dd5df"/><stop offset="1" stop-color="#c3e1f5"/></linearGradient><linearGradient id="linear-gradient-11" x1="4" y1="35" x2="4" y2="29" xlink:href="#linear-gradient"/><linearGradient id="linear-gradient-12" x1="60" y1="35" x2="60" y2="29" xlink:href="#linear-gradient"/><linearGradient id="linear-gradient-13" x1="18.5" y1="10.62" x2="18.5" y2="6.62" xlink:href="#linear-gradient"/><linearGradient id="linear-gradient-14" x1="45.5" y1="57.38" x2="45.5" y2="53.38" xlink:href="#linear-gradient"/><linearGradient id="linear-gradient-15" x1="18.5" y1="57.38" x2="18.5" y2="53.38" xlink:href="#linear-gradient"/><linearGradient id="linear-gradient-16" x1="45.5" y1="10.62" x2="45.5" y2="6.62" xlink:href="#linear-gradient"/><linearGradient id="linear-gradient-17" x1="29.94" y1="33" x2="29.94" y2="15" gradientUnits="userSpaceOnUse"><stop offset="0" stop-color="#6ab891"/><stop offset="1" stop-color="#85cba9"/></linearGradient><linearGradient id="linear-gradient-18" x1="34.7" y1="47.81" x2="34.7" y2="32.11" xlink:href="#linear-gradient-17"/><linearGradient id="linear-gradient-19" x1="44.35" y1="33.85" x2="44.35" y2="23.3" xlink:href="#linear-gradient-17"/><linearGradient id="linear-gradient-20" x1="19.31" y1="42.79" x2="19.31" y2="34.87" xlink:href="#linear-gradient-17"/></defs><title>Earth Corona</title><g id="Earth_Corona" data-name="Earth Corona"><circle class="cls-1" cx="32" cy="4" r="3"/><circle class="cls-2" cx="32" cy="60" r="3"/><path class="cls-3" d="M32,11a1,1,0,0,1-1-1V7a1,1,0,0,1,2,0v3A1,1,0,0,1,32,11Z"/><path class="cls-3" d="M32,58a1,1,0,0,1-1-1V54a1,1,0,0,1,2,0v3A1,1,0,0,1,32,58Z"/><path class="cls-3" d="M32,11a1,1,0,0,1-1-1V7a1,1,0,0,1,2,0v3A1,1,0,0,1,32,11Z"/><path class="cls-3" d="M32,58a1,1,0,0,1-1-1V54a1,1,0,0,1,2,0v3A1,1,0,0,1,32,58Z"/><circle class="cls-4" cx="8.62" cy="45.5" r="2"/><circle class="cls-5" cx="55.38" cy="18.5" r="2"/><path class="cls-3" d="M10.35,45.5a1,1,0,0,1-.5-1.87l2.6-1.5a1,1,0,0,1,1,1.74l-2.6,1.5A1,1,0,0,1,10.35,45.5Z"/><path class="cls-3" d="M51.05,22a1,1,0,0,1-.5-1.87l2.6-1.5a1,1,0,0,1,1,1.74l-2.6,1.5A1,1,0,0,1,51.05,22Z"/><circle class="cls-6" cx="55.38" cy="45.5" r="2"/><circle class="cls-7" cx="8.62" cy="18.5" r="2"/><path class="cls-3" d="M53.65,45.5a1,1,0,0,1-.5-.13l-2.6-1.5a1,1,0,0,1,1-1.74l2.6,1.5a1,1,0,0,1-.5,1.87Z"/><path class="cls-3" d="M13,22a1,1,0,0,1-.5-.13l-2.6-1.5a1,1,0,1,1,1-1.74l2.6,1.5A1,1,0,0,1,13,22Z"/><path class="cls-8" d="M51.05,21a22,22,0,1,0,3,11A21.89,21.89,0,0,0,51.05,21Z"/><path class="cls-3" d="M54,32A22,22,0,0,1,13,43,21.8,21.8,0,0,1,10,32c0-.33,0-.67,0-1a22,22,0,0,0,33,18A22,22,0,0,0,54,31C54,31.33,54,31.67,54,32Z"/><path class="cls-9" d="M49,32c0,.63,0,1.25-.1,1.85,0,.24-.06.47-.1.7A17,17,0,0,1,32,49a17.07,17.07,0,0,1-13.13-6.21l-.3-.37a16.77,16.77,0,0,1-3.32-7.55l0-.18A16.92,16.92,0,0,1,22.09,18.2h0a16.93,16.93,0,0,1,15-2.41l.23.07a17,17,0,0,1,9.82,8.42,11,11,0,0,1,.5,1h0A16.73,16.73,0,0,1,49,32Z"/><path class="cls-9" d="M49,32c0,.63,0,1.25-.1,1.85,0,.24-.06.47-.1.7A17,17,0,0,1,32,49a17.07,17.07,0,0,1-13.13-6.21l-.3-.37a16.77,16.77,0,0,1-3.32-7.55l0-.18A16.92,16.92,0,0,1,22.09,18.2h0a16.93,16.93,0,0,1,15-2.41l.23.07a17,17,0,0,1,9.82,8.42,11,11,0,0,1,.5,1h0A16.73,16.73,0,0,1,49,32Z"/><path class="cls-9" d="M49,32c0,.63,0,1.25-.1,1.85,0,.24-.06.47-.1.7A17,17,0,0,1,32,49a17.07,17.07,0,0,1-13.13-6.21l-.3-.37a16.77,16.77,0,0,1-3.32-7.55l0-.18A16.92,16.92,0,0,1,22.09,18.2h0a16.93,16.93,0,0,1,15-2.41l.23.07a17,17,0,0,1,9.82,8.42,11,11,0,0,1,.5,1h0A16.73,16.73,0,0,1,49,32Z"/><path class="cls-10" d="M48.87,34.06c0,.17,0,.33-.07.49A17,17,0,0,1,32,49a17.07,17.07,0,0,1-13.13-6.21l-.3-.37a16.77,16.77,0,0,1-3.32-7.55l0-.18A17,17,0,0,1,15,32a17.56,17.56,0,0,1,.5-4.13A18.74,18.74,0,0,0,15.37,30a17,17,0,0,0,.22,2.69l0,.18a16.77,16.77,0,0,0,3.32,7.55l.3.37A17.07,17.07,0,0,0,32.37,47,17,17,0,0,0,48.87,34.06Z"/><circle class="cls-11" cx="4" cy="32" r="3"/><circle class="cls-12" cx="60" cy="32" r="3"/><path class="cls-3" d="M12,33H7a1,1,0,0,1,0-2h5a1,1,0,0,1,0,2Z"/><path class="cls-3" d="M57,33H52a1,1,0,0,1,0-2h5a1,1,0,0,1,0,2Z"/><circle class="cls-13" cx="18.5" cy="8.62" r="2"/><circle class="cls-14" cx="45.5" cy="55.38" r="2"/><path class="cls-3" d="M22,15.69a1,1,0,0,1-.87-.5l-2.5-4.34a1,1,0,0,1,1.74-1l2.5,4.34a1,1,0,0,1-.87,1.5Z"/><path class="cls-3" d="M44.5,54.65a1,1,0,0,1-.87-.5l-2.5-4.33a1,1,0,0,1,1.74-1l2.5,4.33a1,1,0,0,1-.87,1.5Z"/><circle class="cls-15" cx="18.5" cy="55.38" r="2"/><circle class="cls-16" cx="45.5" cy="8.62" r="2"/><path class="cls-3" d="M19.5,54.65a1,1,0,0,1-.87-1.5l2.49-4.33a1,1,0,1,1,1.74,1l-2.49,4.33A1,1,0,0,1,19.5,54.65Z"/><path class="cls-3" d="M42,15.68a1,1,0,0,1-.87-1.5l2.5-4.33a1,1,0,0,1,1.74,1l-2.5,4.33A1,1,0,0,1,42,15.68Z"/><path class="cls-3" d="M12,33H7a1,1,0,0,1,0-2h5a1,1,0,0,1,0,2Z"/><path class="cls-3" d="M57,33H52a1,1,0,0,1,0-2h5a1,1,0,0,1,0,2Z"/><path class="cls-17" d="M38,20c-1,2-1,2-4,2s-1,4-3,5-3-1-4,0,3,2,2,6c0-2-6-4-7-5s1-4,1-7a5.18,5.18,0,0,0-.89-2.81,16.93,16.93,0,0,1,15-2.41C36.11,17.06,35,17.25,35,18,35,19,39,18,38,20Z"/><path class="cls-18" d="M29,33s4-2,6,0,6,1,6,3-1,6-3,7-4,2-3,4-3,0-3-3,1-4-1-5S27.5,34.5,29,33Z"/><path class="cls-19" d="M49,32c0,.63,0,1.25-.1,1.85A3.71,3.71,0,0,1,48,32c0-1-4-1-7-3s0-3,1-5c.67-1.35,3.41-.46,5.13.27a11,11,0,0,1,.5,1h0A16.73,16.73,0,0,1,49,32Z"/><path class="cls-20" d="M23,42c-.63.63-2.39.5-4.13.79l-.3-.37a16.77,16.77,0,0,1-3.32-7.55A7.37,7.37,0,0,1,20,37C23,40,24,41,23,42Z"/><circle class="cls-1" cx="32" cy="4" r="3"/><circle class="cls-2" cx="32" cy="60" r="3"/><circle class="cls-4" cx="8.62" cy="45.5" r="2"/><circle class="cls-5" cx="55.38" cy="18.5" r="2"/><circle class="cls-6" cx="55.38" cy="45.5" r="2"/><circle class="cls-7" cx="8.62" cy="18.5" r="2"/><circle class="cls-13" cx="18.5" cy="8.62" r="2"/><circle class="cls-14" cx="45.5" cy="55.38" r="2"/><circle class="cls-15" cx="18.5" cy="55.38" r="2"/><circle class="cls-16" cx="45.5" cy="8.62" r="2"/><circle class="cls-11" cx="4" cy="32" r="3"/><circle class="cls-12" cx="60" cy="32" r="3"/></g></svg>