<svg xmlns="http://www.w3.org/2000/svg" xmlns:xlink="http://www.w3.org/1999/xlink" viewBox="0 0 64 64"><defs><style>.cls-1{fill:url(#linear-gradient);}.cls-2{fill:#5b8dc9;}.cls-3{fill:url(#linear-gradient-3);}.cls-4{fill:#77cacb;}.cls-5{fill:#cf4055;}.cls-6{fill:url(#linear-gradient-4);}.cls-7{fill:url(#linear-gradient-5);}.cls-8{fill:url(#linear-gradient-6);}.cls-9{fill:url(#linear-gradient-7);}.cls-10{fill:url(#linear-gradient-8);}</style><linearGradient id="linear-gradient" x1="32" y1="63" x2="32" y2="1" gradientUnits="userSpaceOnUse"><stop offset="0" stop-color="#7aa8d7"/><stop offset="1" stop-color="#c3d2e7"/></linearGradient><linearGradient id="linear-gradient-3" x1="32" y1="57.73" x2="32" y2="6.25" gradientUnits="userSpaceOnUse"><stop offset="0" stop-color="#9dd5df"/><stop offset="1" stop-color="#c3e1f5"/></linearGradient><linearGradient id="linear-gradient-4" x1="32" y1="38" x2="32" y2="20" gradientUnits="userSpaceOnUse"><stop offset="0" stop-color="#da5466"/><stop offset="1" stop-color="#f4929c"/></linearGradient><linearGradient id="linear-gradient-5" x1="41.19" y1="21.81" x2="41.19" y2="17.81" xlink:href="#linear-gradient-4"/><linearGradient id="linear-gradient-6" x1="22.81" y1="21.81" x2="22.81" y2="17.81" xlink:href="#linear-gradient-4"/><linearGradient id="linear-gradient-7" x1="41.19" y1="39.81" x2="41.19" y2="35.81" xlink:href="#linear-gradient-4"/><linearGradient id="linear-gradient-8" x1="22.81" y1="39.81" x2="22.81" y2="35.81" xlink:href="#linear-gradient-4"/></defs><title>Protection</title><g id="Protection"><path class="cls-1" d="M32,63h0A36.84,36.84,0,0,1,6,27.8V5H7.35A77.93,77.93,0,0,0,32,1h0A77.93,77.93,0,0,0,56.65,5H58V27.8A36.84,36.84,0,0,1,32,63Z"/><path class="cls-1" d="M32,63h0A36.84,36.84,0,0,1,6,27.8V5H7.35A77.93,77.93,0,0,0,32,1h0A77.93,77.93,0,0,0,56.65,5H58V27.8A36.84,36.84,0,0,1,32,63Z"/><path class="cls-2" d="M58,25.8v2A36.84,36.84,0,0,1,32,63,36.84,36.84,0,0,1,6,27.8v-2A36.84,36.84,0,0,0,32,61,36.84,36.84,0,0,0,58,25.8Z"/><path class="cls-3" d="M32,57.73A31.66,31.66,0,0,1,11,27.8V9.92A82.48,82.48,0,0,0,32,6.25,82.48,82.48,0,0,0,53,9.92V27.8A31.66,31.66,0,0,1,32,57.73Z"/><path class="cls-4" d="M53,25.8v2A31.66,31.66,0,0,1,32,57.73,31.66,31.66,0,0,1,11,27.8v-2A31.66,31.66,0,0,0,32,55.73,31.66,31.66,0,0,0,53,25.8Z"/><path class="cls-5" d="M23,30H20a1,1,0,1,1,0-2h3a1,1,0,1,1,0,2Z"/><path class="cls-5" d="M44,30H41a1,1,0,0,1,0-2h3a1,1,0,0,1,0,2Z"/><path class="cls-5" d="M32,21a1,1,0,0,1-1-1V17a1,1,0,0,1,2,0v3A1,1,0,0,1,32,21Z"/><path class="cls-5" d="M32,41a1,1,0,0,1-1-1V37a1,1,0,0,1,2,0v3A1,1,0,0,1,32,41Z"/><circle class="cls-6" cx="32" cy="29" r="9"/><path class="cls-5" d="M38.36,35.36A9,9,0,0,1,23.06,28a9,9,0,0,0,17.88,0A8.92,8.92,0,0,1,38.36,35.36Z"/><path class="cls-5" d="M27.05,25.05a1,1,0,0,1-.71-.29l-3.53-3.54a1,1,0,0,1,1.41-1.41l3.54,3.53a1,1,0,0,1,0,1.42A1,1,0,0,1,27.05,25.05Z"/><path class="cls-5" d="M40.49,38.49a1,1,0,0,1-.71-.3l-3.54-3.53a1,1,0,0,1,1.42-1.42l3.53,3.54a1,1,0,0,1,0,1.41A1,1,0,0,1,40.49,38.49Z"/><path class="cls-5" d="M37,25.05a1,1,0,0,1-.71-.29,1,1,0,0,1,0-1.42l3.54-3.53a1,1,0,0,1,1.41,1.41l-3.53,3.54A1,1,0,0,1,37,25.05Z"/><path class="cls-5" d="M23.51,38.49a1,1,0,0,1-.7-.3,1,1,0,0,1,0-1.41l3.53-3.54a1,1,0,0,1,1.42,1.42l-3.54,3.53A1,1,0,0,1,23.51,38.49Z"/><path class="cls-5" d="M28.46,30.29a2,2,0,0,1-1.41-.58,2,2,0,0,1,0-2.83,2,2,0,0,1,2.83,0h0a2,2,0,0,1,0,2.83A2,2,0,0,1,28.46,30.29Zm0-2Z"/><circle class="cls-5" cx="34.83" cy="26.88" r="1.5"/><circle class="cls-5" cx="32" cy="33.24" r="1"/><path class="cls-7" d="M41.19,21.81a2,2,0,1,1,1.42-.59A2,2,0,0,1,41.19,21.81Zm0-2Z"/><path class="cls-8" d="M22.81,21.81a2,2,0,1,1,1.41-.59A2,2,0,0,1,22.81,21.81Zm0-2Z"/><path class="cls-9" d="M41.19,39.81a2,2,0,1,1,1.42-.59A2,2,0,0,1,41.19,39.81Zm0-2Z"/><path class="cls-10" d="M22.81,39.81a2,2,0,1,1,1.41-.59A2,2,0,0,1,22.81,39.81Zm0-2Z"/></g></svg>