<svg xmlns="http://www.w3.org/2000/svg" xmlns:xlink="http://www.w3.org/1999/xlink" viewBox="0 0 64 64"><defs><style>.cls-1{fill:url(#linear-gradient);}.cls-2{fill:#8a6762;}.cls-3{fill:url(#linear-gradient-2);}.cls-4{fill:#c7cdd8;}.cls-5{fill:#9ca0ad;}.cls-6{fill:#8288a1;}.cls-7{fill:url(#linear-gradient-3);}.cls-8{fill:#d7dbe2;}.cls-9{fill:#cf4055;}.cls-10{fill:url(#linear-gradient-4);}.cls-11{fill:url(#linear-gradient-5);}.cls-12{fill:url(#linear-gradient-6);}.cls-13{fill:url(#linear-gradient-7);}.cls-14{fill:url(#linear-gradient-8);}</style><linearGradient id="linear-gradient" x1="32" y1="63" x2="32" y2="3" gradientUnits="userSpaceOnUse"><stop offset="0" stop-color="#9b756d"/><stop offset="1" stop-color="#bc9388"/></linearGradient><linearGradient id="linear-gradient-2" x1="16.46" y1="59.42" x2="47.54" y2="5.58" gradientUnits="userSpaceOnUse"><stop offset="0" stop-color="#d4d8e1"/><stop offset="1" stop-color="#f3f4f5"/></linearGradient><linearGradient id="linear-gradient-3" x1="32" y1="7" x2="32" y2="1" gradientUnits="userSpaceOnUse"><stop offset="0" stop-color="#a0a6ba"/><stop offset="1" stop-color="#c6ccda"/></linearGradient><linearGradient id="linear-gradient-4" x1="32" y1="37" x2="32" y2="19" gradientUnits="userSpaceOnUse"><stop offset="0" stop-color="#da5466"/><stop offset="1" stop-color="#f4929c"/></linearGradient><linearGradient id="linear-gradient-5" x1="41.19" y1="20.81" x2="41.19" y2="16.81" xlink:href="#linear-gradient-4"/><linearGradient id="linear-gradient-6" x1="22.81" y1="20.81" x2="22.81" y2="16.81" xlink:href="#linear-gradient-4"/><linearGradient id="linear-gradient-7" x1="41.19" y1="38.81" x2="41.19" y2="34.81" xlink:href="#linear-gradient-4"/><linearGradient id="linear-gradient-8" x1="22.81" y1="38.81" x2="22.81" y2="34.81" xlink:href="#linear-gradient-4"/></defs><title>Report</title><g id="Report"><path class="cls-1" d="M42,3h9a4,4,0,0,1,4,4V59a4,4,0,0,1-4,4H13a4,4,0,0,1-4-4V7a4,4,0,0,1,4-4h9"/><path class="cls-2" d="M55,57v2a4,4,0,0,1-4,4H13a4,4,0,0,1-4-4V57a4,4,0,0,0,4,4H51A4,4,0,0,0,55,57Z"/><polygon class="cls-3" points="50 7 50 49 50 58 14 58 14 7 50 7"/><polygon class="cls-4" points="50 56 50 57.65 50 58 14 58 14 56 50 56"/><path class="cls-5" d="M44,46H20a1,1,0,0,1,0-2H44a1,1,0,0,1,0,2Z"/><path class="cls-5" d="M44,50H20a1,1,0,0,1,0-2H44a1,1,0,0,1,0,2Z"/><path class="cls-5" d="M39,54H20a1,1,0,0,1,0-2H39a1,1,0,0,1,0,2Z"/><path class="cls-6" d="M38,13H35.46a2.89,2.89,0,0,1-2.58-1.47,1,1,0,0,0-1.76,0A2.89,2.89,0,0,1,28.54,13H26a3,3,0,0,1-3-3V6a1,1,0,0,1,2,0v4a1,1,0,0,0,1,1h2.54a.93.93,0,0,0,.82-.42,3,3,0,0,1,5.28,0,.93.93,0,0,0,.82.42H38a1,1,0,0,0,1-1V6a1,1,0,0,1,2,0v4A3,3,0,0,1,38,13Z"/><rect class="cls-7" x="22" y="1" width="20" height="6" rx="3"/><circle class="cls-8" cx="26" cy="4" r="1"/><circle class="cls-8" cx="38" cy="4" r="1"/><path class="cls-9" d="M23,29H20a1,1,0,0,1,0-2h3a1,1,0,1,1,0,2Z"/><path class="cls-9" d="M44,29H41a1,1,0,0,1,0-2h3a1,1,0,0,1,0,2Z"/><path class="cls-9" d="M32,20a1,1,0,0,1-1-1V16a1,1,0,0,1,2,0v3A1,1,0,0,1,32,20Z"/><path class="cls-9" d="M32,40a1,1,0,0,1-1-1V36a1,1,0,0,1,2,0v3A1,1,0,0,1,32,40Z"/><circle class="cls-10" cx="32" cy="28" r="9"/><path class="cls-9" d="M38.36,34.36A9,9,0,0,1,23.06,27a9,9,0,0,0,17.88,0A8.92,8.92,0,0,1,38.36,34.36Z"/><path class="cls-9" d="M27.05,24.05a1,1,0,0,1-.7-.29l-3.54-3.53a1,1,0,0,1,1.42-1.42l3.53,3.54a1,1,0,0,1,0,1.41A1,1,0,0,1,27.05,24.05Z"/><path class="cls-9" d="M40.48,37.48a1,1,0,0,1-.71-.29l-3.53-3.54a1,1,0,0,1,1.41-1.41l3.54,3.54a1,1,0,0,1,0,1.41A1,1,0,0,1,40.48,37.48Z"/><path class="cls-9" d="M37,24.05a1,1,0,0,1-.71-.29,1,1,0,0,1,0-1.41l3.53-3.54a1,1,0,1,1,1.42,1.42l-3.54,3.53A1,1,0,0,1,37,24.05Z"/><path class="cls-9" d="M23.52,37.48a1,1,0,0,1-.71-.29,1,1,0,0,1,0-1.41l3.54-3.54a1,1,0,0,1,1.41,1.41l-3.53,3.54A1,1,0,0,1,23.52,37.48Z"/><path class="cls-9" d="M28.47,29.29a2,2,0,0,1-1.42-3.41,2.06,2.06,0,0,1,2.83,0h0a2,2,0,0,1,0,2.83A2,2,0,0,1,28.47,29.29Zm0-2h0Z"/><circle class="cls-9" cx="34.83" cy="25.88" r="1.5"/><circle class="cls-9" cx="32" cy="32.24" r="1"/><path class="cls-11" d="M41.19,20.81a2,2,0,1,1,1.41-.58A2,2,0,0,1,41.19,20.81Zm0-2Z"/><path class="cls-12" d="M22.81,20.81a2,2,0,0,1-1.41-.58,2,2,0,1,1,1.41.58Zm0-2Z"/><path class="cls-13" d="M41.19,38.81a2,2,0,1,1,1.41-.58A2,2,0,0,1,41.19,38.81Zm0-2Z"/><path class="cls-14" d="M22.81,38.81a2,2,0,0,1-1.41-.58,2,2,0,1,1,1.41.58Zm0-2Z"/></g></svg>