<svg xmlns="http://www.w3.org/2000/svg" xmlns:xlink="http://www.w3.org/1999/xlink" viewBox="0 0 64 64"><defs><linearGradient id="linear-gradient" x1="8.62" y1="20.5" x2="8.62" y2="16.5" gradientUnits="userSpaceOnUse"><stop offset="0" stop-color="#da5466"/><stop offset="1" stop-color="#f4929c"/></linearGradient><linearGradient id="linear-gradient-2" x1="32" y1="52" x2="32" y2="12" xlink:href="#linear-gradient"/><linearGradient id="linear-gradient-3" x1="32" y1="7" x2="32" y2="1" xlink:href="#linear-gradient"/><linearGradient id="linear-gradient-4" x1="32" y1="63" x2="32" y2="57" xlink:href="#linear-gradient"/><linearGradient id="linear-gradient-5" x1="4" y1="35" x2="4" y2="29" xlink:href="#linear-gradient"/><linearGradient id="linear-gradient-6" x1="60" y1="35" x2="60" y2="29" xlink:href="#linear-gradient"/><linearGradient id="linear-gradient-8" x1="18.5" y1="10.62" x2="18.5" y2="6.62" xlink:href="#linear-gradient"/><linearGradient id="linear-gradient-10" x1="45.5" y1="57.38" x2="45.5" y2="53.38" xlink:href="#linear-gradient"/><linearGradient id="linear-gradient-11" x1="18.5" y1="57.38" x2="18.5" y2="53.38" xlink:href="#linear-gradient"/><linearGradient id="linear-gradient-12" x1="45.5" y1="10.62" x2="45.5" y2="6.62" xlink:href="#linear-gradient"/><linearGradient id="linear-gradient-13" x1="8.62" y1="47.5" x2="8.62" y2="43.5" xlink:href="#linear-gradient"/><linearGradient id="linear-gradient-15" x1="55.38" y1="20.5" x2="55.38" y2="16.5" xlink:href="#linear-gradient"/><linearGradient id="linear-gradient-17" x1="55.38" y1="47.5" x2="55.38" y2="43.5" xlink:href="#linear-gradient"/><style>.cls-1{fill:url(#linear-gradient)}.cls-2{fill:#cf4055}.cls-5{fill:url(#linear-gradient-3)}.cls-6{fill:url(#linear-gradient-4)}.cls-7{fill:url(#linear-gradient-5)}.cls-8{fill:url(#linear-gradient-6)}.cls-9{fill:url(#linear-gradient-8)}.cls-10{fill:url(#linear-gradient-10)}.cls-11{fill:url(#linear-gradient-11)}.cls-12{fill:url(#linear-gradient-12)}.cls-13{fill:url(#linear-gradient-13)}.cls-14{fill:url(#linear-gradient-15)}.cls-15{fill:url(#linear-gradient-17)}</style></defs><g id="Corona_Virus" data-name="Corona Virus"><circle class="cls-1" cx="8.62" cy="18.5" r="2"/><path class="cls-2" d="M49.43 22.75a1 1 0 01-.5-1.88l4.37-2.52a1 1 0 011 1.75l-4.37 2.52a1 1 0 01-.5.13zM32 13a1 1 0 01-1-1V7a1 1 0 012 0v5a1 1 0 01-1 1z"/><path class="cls-2" d="M32 13a1 1 0 01-1-1V7a1 1 0 012 0v5a1 1 0 01-1 1zM14.69 23a1 1 0 01-.5-.13l-4.34-2.5a1 1 0 111-1.74l4.34 2.5a1 1 0 01-.5 1.87zM10.2 45.41a1 1 0 01-.88-.5 1 1 0 01.37-1.38L14.06 41a1 1 0 111 1.75l-4.36 2.53a1 1 0 01-.5.13zm43.45.09a1 1 0 01-.5-.13l-4.34-2.5a1 1 0 011-1.74l4.34 2.5a1 1 0 01-.5 1.87z"/><path d="M32 58a1 1 0 01-1-1v-5a1 1 0 012 0v5a1 1 0 01-1 1z" fill="#231f20"/><path class="cls-2" d="M32 58a1 1 0 01-1-1v-5a1 1 0 012 0v5a1 1 0 01-1 1z"/><circle cx="32" cy="32" r="20" fill="url(#linear-gradient-2)"/><path class="cls-2" d="M52 32a19.93 19.93 0 01-9.07 16.74 16.61 16.61 0 01-1.73 1 19.93 19.93 0 01-18.4 0 16.61 16.61 0 01-1.73-1A19.93 19.93 0 0112 32a18.86 18.86 0 01.1-2 20 20 0 0010.79 15.81 16.48 16.48 0 001.54.7 20 20 0 0015.14 0 16.48 16.48 0 001.54-.7A20 20 0 0051.9 30a18.86 18.86 0 01.1 2z"/><circle class="cls-5" cx="32" cy="4" r="3"/><circle class="cls-6" cx="32" cy="60" r="3"/><circle class="cls-7" cx="4" cy="32" r="3"/><circle class="cls-8" cx="60" cy="32" r="3"/><circle class="cls-5" cx="32" cy="4" r="3"/><circle class="cls-9" cx="18.5" cy="8.62" r="2"/><circle class="cls-6" cx="32" cy="60" r="3"/><circle class="cls-10" cx="45.5" cy="55.38" r="2"/><path class="cls-2" d="M23.5 18.28a1 1 0 01-.87-.5l-4-6.93a1 1 0 011.74-1l4 6.93a1 1 0 01-.37 1.36 1 1 0 01-.5.14zm21.59 36.21a1 1 0 01-.5.14 1 1 0 01-.87-.51l-2.52-4.37-1.51-2.6a.92.92 0 01-.12-.64 16.48 16.48 0 001.54-.7.92.92 0 01.32.33l1.5 2.6 2.53 4.38a1 1 0 01-.37 1.37z"/><circle class="cls-11" cx="18.5" cy="55.38" r="2"/><circle class="cls-12" cx="45.5" cy="8.62" r="2"/><path class="cls-2" d="M24.43 46.51a.92.92 0 01-.12.64l-1.51 2.6-2.52 4.37a1 1 0 01-.87.51 1 1 0 01-.5-.14 1 1 0 01-.37-1.37l2.53-4.38 1.5-2.6a.92.92 0 01.32-.33 16.48 16.48 0 001.54.7zM40.56 18a1 1 0 01-.87-1.51l4-7a1 1 0 011.74 1l-4 7a1 1 0 01-.87.51z"/><circle class="cls-13" cx="8.62" cy="45.5" r="2"/><circle class="cls-13" cx="8.62" cy="45.5" r="2"/><circle class="cls-14" cx="55.38" cy="18.5" r="2"/><circle class="cls-14" cx="55.38" cy="18.5" r="2"/><circle class="cls-15" cx="55.38" cy="45.5" r="2"/><circle class="cls-15" cx="55.38" cy="45.5" r="2"/><circle class="cls-1" cx="8.62" cy="18.5" r="2"/><circle class="cls-2" cx="28.5" cy="25.5" r="3.5"/><circle class="cls-2" cx="36" cy="40" r="3"/><circle class="cls-2" cx="40.5" cy="27.5" r="2.5"/><circle class="cls-2" cx="23" cy="36" r="2"/><path class="cls-2" d="M14.88 32.82H6.82a1 1 0 110-2h8.06a1 1 0 110 2zm42.3 0h-8.06a1 1 0 110-2h8.06a1 1 0 110 2z"/><circle class="cls-9" cx="18.5" cy="8.62" r="2"/><circle class="cls-12" cx="45.5" cy="8.62" r="2"/><circle class="cls-8" cx="60" cy="32" r="3"/><circle class="cls-10" cx="45.5" cy="55.38" r="2"/><circle class="cls-11" cx="18.5" cy="55.38" r="2"/><circle class="cls-7" cx="4" cy="32" r="3"/></g></svg>