<svg xmlns="http://www.w3.org/2000/svg" xmlns:xlink="http://www.w3.org/1999/xlink" viewBox="0 0 64 64"><defs><linearGradient id="linear-gradient" x1="28" y1="53" x2="28" y2="1" gradientUnits="userSpaceOnUse"><stop offset="0" stop-color="#a0a6ba"/><stop offset="1" stop-color="#c6ccda"/></linearGradient><linearGradient id="linear-gradient-3" x1="25" y1="63" x2="25" y2="59" gradientUnits="userSpaceOnUse"><stop offset="0" stop-color="#474f72"/><stop offset="1" stop-color="#878c9f"/></linearGradient><linearGradient id="linear-gradient-4" x1="22.6" y1="59" x2="22.6" y2="53" xlink:href="#linear-gradient-3"/><linearGradient id="linear-gradient-5" x1="28" y1="47" x2="28" y2="7" xlink:href="#linear-gradient-3"/><linearGradient id="linear-gradient-6" x1="28" y1="22" x2="28" y2="7" xlink:href="#linear-gradient-3"/><linearGradient id="linear-gradient-7" x1="49" y1="63" x2="49" y2="35" gradientUnits="userSpaceOnUse"><stop offset="0" stop-color="#9dd5df"/><stop offset="1" stop-color="#c3e1f5"/></linearGradient><linearGradient id="linear-gradient-8" x1="49" y1="56" x2="49" y2="42" gradientUnits="userSpaceOnUse"><stop offset="0" stop-color="#da5466"/><stop offset="1" stop-color="#f4929c"/></linearGradient><style>.cls-1{fill:url(#linear-gradient)}.cls-7{fill:#42455e}.cls-10{fill:#cf4055}</style></defs><g id="Death"><path class="cls-1" d="M35.58 53H9V20a19 19 0 0138 0v15.14"/><path class="cls-1" d="M35.58 53H9V20a19 19 0 0138 0v15.14"/><path d="M39.21 59H4.12A3.12 3.12 0 001 62.12V63h48z" fill="url(#linear-gradient-3)"/><path fill="url(#linear-gradient-4)" d="M35.58 53H6v6h33.21l-3.63-6z"/><path d="M41 37.52V20a13 13 0 00-26 0v27h20.14" fill="url(#linear-gradient-5)"/><path d="M41 20v2a13 13 0 00-26 0v-2a13 13 0 0126 0z" fill="url(#linear-gradient-6)"/><path fill="#9ca0ad" d="M37 22h-7v-7h-4v7h-7v4h7v15h4V26h7v-4z"/><path class="cls-7" d="M6 57h36v2H6z"/><path fill="#8288a1" d="M9 51h28v2H9z"/><path class="cls-7" d="M15 45h25v2H15z"/><circle cx="49" cy="49" r="14" fill="url(#linear-gradient-7)"/><path class="cls-10" d="M54 45.05a1 1 0 01-.71-.29 1 1 0 010-1.42l2-2.05a1 1 0 011.42 1.42l-2.05 2a1 1 0 01-.66.34zM42 57a1 1 0 01-.71-.29 1 1 0 010-1.42l2.05-2a1 1 0 011.42 1.42l-2 2.05A1 1 0 0142 57zm14 0a1 1 0 01-.71-.29l-2-2.05a1 1 0 011.42-1.42l2.05 2a1 1 0 010 1.42A1 1 0 0156 57zM44.05 45.05a1 1 0 01-.71-.29l-2.05-2a1 1 0 011.42-1.42l2 2.05a1 1 0 010 1.42 1 1 0 01-.66.24z"/><circle cx="49" cy="49" r="7" fill="url(#linear-gradient-8)"/><path class="cls-10" d="M56 49a7 7 0 01-14 0 5.47 5.47 0 01.08-1 7 7 0 0013.84 0 5.47 5.47 0 01.08 1zm-7-5a1 1 0 01-1-1v-3a1 1 0 012 0v3a1 1 0 01-1 1z"/><path class="cls-10" d="M49 59a1 1 0 01-1-1v-3a1 1 0 012 0v3a1 1 0 01-1 1zm9-9h-3a1 1 0 010-2h3a1 1 0 010 2zm-15 0h-3a1 1 0 010-2h3a1 1 0 010 2z"/><circle class="cls-10" cx="46.5" cy="47.5" r="1.5"/><circle class="cls-10" cx="52" cy="48" r="1"/><circle class="cls-10" cx="49" cy="51" r="1"/></g></svg>