<svg xmlns="http://www.w3.org/2000/svg" xmlns:xlink="http://www.w3.org/1999/xlink" viewBox="0 0 64 64"><defs><linearGradient id="linear-gradient" x1="32" y1="7" x2="32" y2="1" gradientUnits="userSpaceOnUse"><stop offset="0" stop-color="#da5466"/><stop offset="1" stop-color="#f4929c"/></linearGradient><linearGradient id="linear-gradient-2" y1="63" y2="57" xlink:href="#linear-gradient"/><linearGradient id="linear-gradient-3" x1="8.62" y1="47.5" x2="8.62" y2="43.5" xlink:href="#linear-gradient"/><linearGradient id="linear-gradient-4" x1="55.38" y1="20.5" x2="55.38" y2="16.5" xlink:href="#linear-gradient"/><linearGradient id="linear-gradient-5" x1="55.38" y1="47.5" x2="55.38" y2="43.5" xlink:href="#linear-gradient"/><linearGradient id="linear-gradient-6" x1="8.62" y1="20.5" x2="8.62" y2="16.5" xlink:href="#linear-gradient"/><linearGradient id="linear-gradient-7" y1="54" y2="10" xlink:href="#linear-gradient"/><linearGradient id="linear-gradient-8" x1="32" y1="49" x2="32" y2="15" gradientUnits="userSpaceOnUse"><stop offset="0" stop-color="#9dd5df"/><stop offset="1" stop-color="#c3e1f5"/></linearGradient><linearGradient id="linear-gradient-11" x1="4" y1="35" x2="4" y2="29" xlink:href="#linear-gradient"/><linearGradient id="linear-gradient-12" x1="60" y1="35" x2="60" y2="29" xlink:href="#linear-gradient"/><linearGradient id="linear-gradient-13" x1="18.5" y1="10.62" x2="18.5" y2="6.62" xlink:href="#linear-gradient"/><linearGradient id="linear-gradient-14" x1="45.5" y1="57.38" x2="45.5" y2="53.38" xlink:href="#linear-gradient"/><linearGradient id="linear-gradient-15" x1="18.5" y1="57.38" x2="18.5" y2="53.38" xlink:href="#linear-gradient"/><linearGradient id="linear-gradient-16" x1="45.5" y1="10.62" x2="45.5" y2="6.62" xlink:href="#linear-gradient"/><linearGradient id="linear-gradient-17" x1="29.94" y1="33" x2="29.94" y2="15" gradientUnits="userSpaceOnUse"><stop offset="0" stop-color="#6ab891"/><stop offset="1" stop-color="#85cba9"/></linearGradient><linearGradient id="linear-gradient-18" x1="34.7" y1="47.81" x2="34.7" y2="32.11" xlink:href="#linear-gradient-17"/><linearGradient id="linear-gradient-19" x1="44.35" y1="33.85" x2="44.35" y2="23.3" xlink:href="#linear-gradient-17"/><linearGradient id="linear-gradient-20" x1="19.31" y1="42.79" x2="19.31" y2="34.87" xlink:href="#linear-gradient-17"/><style>.cls-1{fill:url(#linear-gradient)}.cls-2{fill:url(#linear-gradient-2)}.cls-3{fill:#cf4055}.cls-4{fill:url(#linear-gradient-3)}.cls-5{fill:url(#linear-gradient-4)}.cls-6{fill:url(#linear-gradient-5)}.cls-7{fill:url(#linear-gradient-6)}.cls-9{fill:url(#linear-gradient-8)}.cls-11{fill:url(#linear-gradient-11)}.cls-12{fill:url(#linear-gradient-12)}.cls-13{fill:url(#linear-gradient-13)}.cls-14{fill:url(#linear-gradient-14)}.cls-15{fill:url(#linear-gradient-15)}.cls-16{fill:url(#linear-gradient-16)}</style></defs><g id="Earth_Corona" data-name="Earth Corona"><circle class="cls-1" cx="32" cy="4" r="3"/><circle class="cls-2" cx="32" cy="60" r="3"/><path class="cls-3" d="M32 11a1 1 0 01-1-1V7a1 1 0 012 0v3a1 1 0 01-1 1zm0 47a1 1 0 01-1-1v-3a1 1 0 012 0v3a1 1 0 01-1 1z"/><path class="cls-3" d="M32 11a1 1 0 01-1-1V7a1 1 0 012 0v3a1 1 0 01-1 1zm0 47a1 1 0 01-1-1v-3a1 1 0 012 0v3a1 1 0 01-1 1z"/><circle class="cls-4" cx="8.62" cy="45.5" r="2"/><circle class="cls-5" cx="55.38" cy="18.5" r="2"/><path class="cls-3" d="M10.35 45.5a1 1 0 01-.5-1.87l2.6-1.5a1 1 0 011 1.74l-2.6 1.5a1 1 0 01-.5.13zM51.05 22a1 1 0 01-.5-1.87l2.6-1.5a1 1 0 011 1.74l-2.6 1.5a1 1 0 01-.5.13z"/><circle class="cls-6" cx="55.38" cy="45.5" r="2"/><circle class="cls-7" cx="8.62" cy="18.5" r="2"/><path class="cls-3" d="M53.65 45.5a1 1 0 01-.5-.13l-2.6-1.5a1 1 0 011-1.74l2.6 1.5a1 1 0 01-.5 1.87zM13 22a1 1 0 01-.5-.13l-2.6-1.5a1 1 0 111-1.74l2.6 1.5A1 1 0 0113 22z"/><path d="M51.05 21a22 22 0 103 11 21.89 21.89 0 00-3-11z" fill="url(#linear-gradient-7)"/><path class="cls-3" d="M54 32a22 22 0 01-41 11 21.8 21.8 0 01-3-11v-1a22 22 0 0033 18 22 22 0 0011-18v1z"/><path class="cls-9" d="M49 32c0 .63 0 1.25-.1 1.85 0 .24-.06.47-.1.7A17 17 0 0132 49a17.07 17.07 0 01-13.13-6.21l-.3-.37a16.77 16.77 0 01-3.32-7.55v-.18a16.92 16.92 0 016.84-16.49 16.93 16.93 0 0115-2.41l.23.07a17 17 0 019.82 8.42 11 11 0 01.5 1A16.73 16.73 0 0149 32z"/><path class="cls-9" d="M49 32c0 .63 0 1.25-.1 1.85 0 .24-.06.47-.1.7A17 17 0 0132 49a17.07 17.07 0 01-13.13-6.21l-.3-.37a16.77 16.77 0 01-3.32-7.55v-.18a16.92 16.92 0 016.84-16.49 16.93 16.93 0 0115-2.41l.23.07a17 17 0 019.82 8.42 11 11 0 01.5 1A16.73 16.73 0 0149 32z"/><path class="cls-9" d="M49 32c0 .63 0 1.25-.1 1.85 0 .24-.06.47-.1.7A17 17 0 0132 49a17.07 17.07 0 01-13.13-6.21l-.3-.37a16.77 16.77 0 01-3.32-7.55v-.18a16.92 16.92 0 016.84-16.49 16.93 16.93 0 0115-2.41l.23.07a17 17 0 019.82 8.42 11 11 0 01.5 1A16.73 16.73 0 0149 32z"/><path d="M48.87 34.06c0 .17 0 .33-.07.49A17 17 0 0132 49a17.07 17.07 0 01-13.13-6.21l-.3-.37a16.77 16.77 0 01-3.32-7.55v-.18A17 17 0 0115 32a17.56 17.56 0 01.5-4.13 18.74 18.74 0 00-.13 2.13 17 17 0 00.22 2.69v.18a16.77 16.77 0 003.32 7.55l.3.37A17.07 17.07 0 0032.37 47a17 17 0 0016.5-12.94z" fill="#77cacb"/><circle class="cls-11" cx="4" cy="32" r="3"/><circle class="cls-12" cx="60" cy="32" r="3"/><path class="cls-3" d="M12 33H7a1 1 0 010-2h5a1 1 0 010 2zm45 0h-5a1 1 0 010-2h5a1 1 0 010 2z"/><circle class="cls-13" cx="18.5" cy="8.62" r="2"/><circle class="cls-14" cx="45.5" cy="55.38" r="2"/><path class="cls-3" d="M22 15.69a1 1 0 01-.87-.5l-2.5-4.34a1 1 0 011.74-1l2.5 4.34a1 1 0 01-.87 1.5zm22.5 38.96a1 1 0 01-.87-.5l-2.5-4.33a1 1 0 011.74-1l2.5 4.33a1 1 0 01-.87 1.5z"/><circle class="cls-15" cx="18.5" cy="55.38" r="2"/><circle class="cls-16" cx="45.5" cy="8.62" r="2"/><path class="cls-3" d="M19.5 54.65a1 1 0 01-.87-1.5l2.49-4.33a1 1 0 111.74 1l-2.49 4.33a1 1 0 01-.87.5zM42 15.68a1 1 0 01-.87-1.5l2.5-4.33a1 1 0 011.74 1l-2.5 4.33a1 1 0 01-.87.5zM12 33H7a1 1 0 010-2h5a1 1 0 010 2zm45 0h-5a1 1 0 010-2h5a1 1 0 010 2z"/><path d="M38 20c-1 2-1 2-4 2s-1 4-3 5-3-1-4 0 3 2 2 6c0-2-6-4-7-5s1-4 1-7a5.18 5.18 0 00-.89-2.81 16.93 16.93 0 0115-2.41C36.11 17.06 35 17.25 35 18c0 1 4 0 3 2z" fill="url(#linear-gradient-17)"/><path d="M29 33s4-2 6 0 6 1 6 3-1 6-3 7-4 2-3 4-3 0-3-3 1-4-1-5-3.5-4.5-2-6z" fill="url(#linear-gradient-18)"/><path d="M49 32c0 .63 0 1.25-.1 1.85A3.71 3.71 0 0148 32c0-1-4-1-7-3s0-3 1-5c.67-1.35 3.41-.46 5.13.27a11 11 0 01.5 1A16.73 16.73 0 0149 32z" fill="url(#linear-gradient-19)"/><path d="M23 42c-.63.63-2.39.5-4.13.79l-.3-.37a16.77 16.77 0 01-3.32-7.55A7.37 7.37 0 0120 37c3 3 4 4 3 5z" fill="url(#linear-gradient-20)"/><circle class="cls-1" cx="32" cy="4" r="3"/><circle class="cls-2" cx="32" cy="60" r="3"/><circle class="cls-4" cx="8.62" cy="45.5" r="2"/><circle class="cls-5" cx="55.38" cy="18.5" r="2"/><circle class="cls-6" cx="55.38" cy="45.5" r="2"/><circle class="cls-7" cx="8.62" cy="18.5" r="2"/><circle class="cls-13" cx="18.5" cy="8.62" r="2"/><circle class="cls-14" cx="45.5" cy="55.38" r="2"/><circle class="cls-15" cx="18.5" cy="55.38" r="2"/><circle class="cls-16" cx="45.5" cy="8.62" r="2"/><circle class="cls-11" cx="4" cy="32" r="3"/><circle class="cls-12" cx="60" cy="32" r="3"/></g></svg>