<svg xmlns="http://www.w3.org/2000/svg" xmlns:xlink="http://www.w3.org/1999/xlink" viewBox="0 0 64 64"><defs><linearGradient id="linear-gradient" x1="32" y1="63" x2="32" y2="1" gradientUnits="userSpaceOnUse"><stop offset="0" stop-color="#7aa8d7"/><stop offset="1" stop-color="#c3d2e7"/></linearGradient><linearGradient id="linear-gradient-3" x1="32" y1="57.73" x2="32" y2="6.25" gradientUnits="userSpaceOnUse"><stop offset="0" stop-color="#9dd5df"/><stop offset="1" stop-color="#c3e1f5"/></linearGradient><linearGradient id="linear-gradient-4" x1="32" y1="38" x2="32" y2="20" gradientUnits="userSpaceOnUse"><stop offset="0" stop-color="#da5466"/><stop offset="1" stop-color="#f4929c"/></linearGradient><linearGradient id="linear-gradient-5" x1="41.19" y1="21.81" x2="41.19" y2="17.81" xlink:href="#linear-gradient-4"/><linearGradient id="linear-gradient-6" x1="22.81" y1="21.81" x2="22.81" y2="17.81" xlink:href="#linear-gradient-4"/><linearGradient id="linear-gradient-7" x1="41.19" y1="39.81" x2="41.19" y2="35.81" xlink:href="#linear-gradient-4"/><linearGradient id="linear-gradient-8" x1="22.81" y1="39.81" x2="22.81" y2="35.81" xlink:href="#linear-gradient-4"/><style>.cls-1{fill:url(#linear-gradient)}.cls-5{fill:#cf4055}</style></defs><g id="Protection"><path class="cls-1" d="M32 63A36.84 36.84 0 016 27.8V5h1.35A77.93 77.93 0 0032 1a77.93 77.93 0 0024.65 4H58v22.8A36.84 36.84 0 0132 63z"/><path class="cls-1" d="M32 63A36.84 36.84 0 016 27.8V5h1.35A77.93 77.93 0 0032 1a77.93 77.93 0 0024.65 4H58v22.8A36.84 36.84 0 0132 63z"/><path d="M58 25.8v2A36.84 36.84 0 0132 63 36.84 36.84 0 016 27.8v-2A36.84 36.84 0 0032 61a36.84 36.84 0 0026-35.2z" fill="#5b8dc9"/><path d="M32 57.73A31.66 31.66 0 0111 27.8V9.92a82.48 82.48 0 0021-3.67 82.48 82.48 0 0021 3.67V27.8a31.66 31.66 0 01-21 29.93z" fill="url(#linear-gradient-3)"/><path d="M53 25.8v2a31.66 31.66 0 01-21 29.93A31.66 31.66 0 0111 27.8v-2a31.66 31.66 0 0021 29.93A31.66 31.66 0 0053 25.8z" fill="#77cacb"/><path class="cls-5" d="M23 30h-3a1 1 0 110-2h3a1 1 0 110 2zm21 0h-3a1 1 0 010-2h3a1 1 0 010 2zm-12-9a1 1 0 01-1-1v-3a1 1 0 012 0v3a1 1 0 01-1 1zm0 20a1 1 0 01-1-1v-3a1 1 0 012 0v3a1 1 0 01-1 1z"/><circle cx="32" cy="29" r="9" fill="url(#linear-gradient-4)"/><path class="cls-5" d="M38.36 35.36A9 9 0 0123.06 28a9 9 0 0017.88 0 8.92 8.92 0 01-2.58 7.36zM27.05 25.05a1 1 0 01-.71-.29l-3.53-3.54a1 1 0 011.41-1.41l3.54 3.53a1 1 0 010 1.42 1 1 0 01-.71.29z"/><path class="cls-5" d="M40.49 38.49a1 1 0 01-.71-.3l-3.54-3.53a1 1 0 011.42-1.42l3.53 3.54a1 1 0 010 1.41 1 1 0 01-.7.3zM37 25.05a1 1 0 01-.71-.29 1 1 0 010-1.42l3.54-3.53a1 1 0 011.41 1.41l-3.53 3.54a1 1 0 01-.71.29zM23.51 38.49a1 1 0 01-.7-.3 1 1 0 010-1.41l3.53-3.54a1 1 0 011.42 1.42l-3.54 3.53a1 1 0 01-.71.3zm4.95-8.2a2 2 0 01-1.41-.58 2 2 0 010-2.83 2 2 0 012.83 0 2 2 0 010 2.83 2 2 0 01-1.42.58zm0-2z"/><circle class="cls-5" cx="34.83" cy="26.88" r="1.5"/><circle class="cls-5" cx="32" cy="33.24" r="1"/><path d="M41.19 21.81a2 2 0 111.42-.59 2 2 0 01-1.42.59zm0-2z" fill="url(#linear-gradient-5)"/><path d="M22.81 21.81a2 2 0 111.41-.59 2 2 0 01-1.41.59zm0-2z" fill="url(#linear-gradient-6)"/><path d="M41.19 39.81a2 2 0 111.42-.59 2 2 0 01-1.42.59zm0-2z" fill="url(#linear-gradient-7)"/><path d="M22.81 39.81a2 2 0 111.41-.59 2 2 0 01-1.41.59zm0-2z" fill="url(#linear-gradient-8)"/></g></svg>