<svg xmlns="http://www.w3.org/2000/svg" xmlns:xlink="http://www.w3.org/1999/xlink" viewBox="0 0 64 64"><defs><linearGradient id="linear-gradient" x1="32" y1="63" x2="32" y2="3" gradientUnits="userSpaceOnUse"><stop offset="0" stop-color="#9b756d"/><stop offset="1" stop-color="#bc9388"/></linearGradient><linearGradient id="linear-gradient-2" x1="16.46" y1="59.42" x2="47.54" y2="5.58" gradientUnits="userSpaceOnUse"><stop offset="0" stop-color="#d4d8e1"/><stop offset="1" stop-color="#f3f4f5"/></linearGradient><linearGradient id="linear-gradient-3" x1="32" y1="7" x2="32" y2="1" gradientUnits="userSpaceOnUse"><stop offset="0" stop-color="#a0a6ba"/><stop offset="1" stop-color="#c6ccda"/></linearGradient><linearGradient id="linear-gradient-4" x1="32" y1="37" x2="32" y2="19" gradientUnits="userSpaceOnUse"><stop offset="0" stop-color="#da5466"/><stop offset="1" stop-color="#f4929c"/></linearGradient><linearGradient id="linear-gradient-5" x1="41.19" y1="20.81" x2="41.19" y2="16.81" xlink:href="#linear-gradient-4"/><linearGradient id="linear-gradient-6" x1="22.81" y1="20.81" x2="22.81" y2="16.81" xlink:href="#linear-gradient-4"/><linearGradient id="linear-gradient-7" x1="41.19" y1="38.81" x2="41.19" y2="34.81" xlink:href="#linear-gradient-4"/><linearGradient id="linear-gradient-8" x1="22.81" y1="38.81" x2="22.81" y2="34.81" xlink:href="#linear-gradient-4"/><style>.cls-8{fill:#d7dbe2}.cls-9{fill:#cf4055}</style></defs><g id="Report"><path d="M42 3h9a4 4 0 014 4v52a4 4 0 01-4 4H13a4 4 0 01-4-4V7a4 4 0 014-4h9" fill="url(#linear-gradient)"/><path d="M55 57v2a4 4 0 01-4 4H13a4 4 0 01-4-4v-2a4 4 0 004 4h38a4 4 0 004-4z" fill="#8a6762"/><path fill="url(#linear-gradient-2)" d="M50 7v51H14V7h36z"/><path fill="#c7cdd8" d="M50 56v2H14v-2h36z"/><path d="M44 46H20a1 1 0 010-2h24a1 1 0 010 2zm0 4H20a1 1 0 010-2h24a1 1 0 010 2zm-5 4H20a1 1 0 010-2h19a1 1 0 010 2z" fill="#9ca0ad"/><path d="M38 13h-2.54a2.89 2.89 0 01-2.58-1.47 1 1 0 00-1.76 0A2.89 2.89 0 0128.54 13H26a3 3 0 01-3-3V6a1 1 0 012 0v4a1 1 0 001 1h2.54a.93.93 0 00.82-.42 3 3 0 015.28 0 .93.93 0 00.82.42H38a1 1 0 001-1V6a1 1 0 012 0v4a3 3 0 01-3 3z" fill="#8288a1"/><rect x="22" y="1" width="20" height="6" rx="3" fill="url(#linear-gradient-3)"/><circle class="cls-8" cx="26" cy="4" r="1"/><circle class="cls-8" cx="38" cy="4" r="1"/><path class="cls-9" d="M23 29h-3a1 1 0 010-2h3a1 1 0 110 2zm21 0h-3a1 1 0 010-2h3a1 1 0 010 2zm-12-9a1 1 0 01-1-1v-3a1 1 0 012 0v3a1 1 0 01-1 1zm0 20a1 1 0 01-1-1v-3a1 1 0 012 0v3a1 1 0 01-1 1z"/><circle cx="32" cy="28" r="9" fill="url(#linear-gradient-4)"/><path class="cls-9" d="M38.36 34.36A9 9 0 0123.06 27a9 9 0 0017.88 0 8.92 8.92 0 01-2.58 7.36zM27.05 24.05a1 1 0 01-.7-.29l-3.54-3.53a1 1 0 011.42-1.42l3.53 3.54a1 1 0 010 1.41 1 1 0 01-.71.29z"/><path class="cls-9" d="M40.48 37.48a1 1 0 01-.71-.29l-3.53-3.54a1 1 0 011.41-1.41l3.54 3.54a1 1 0 010 1.41 1 1 0 01-.71.29zM37 24.05a1 1 0 01-.71-.29 1 1 0 010-1.41l3.53-3.54a1 1 0 111.42 1.42l-3.54 3.53a1 1 0 01-.7.29zM23.52 37.48a1 1 0 01-.71-.29 1 1 0 010-1.41l3.54-3.54a1 1 0 011.41 1.41l-3.53 3.54a1 1 0 01-.71.29zm4.95-8.19a2 2 0 01-1.42-3.41 2.06 2.06 0 012.83 0 2 2 0 010 2.83 2 2 0 01-1.41.58zm0-2z"/><circle class="cls-9" cx="34.83" cy="25.88" r="1.5"/><circle class="cls-9" cx="32" cy="32.24" r="1"/><path d="M41.19 20.81a2 2 0 111.41-.58 2 2 0 01-1.41.58zm0-2z" fill="url(#linear-gradient-5)"/><path d="M22.81 20.81a2 2 0 01-1.41-.58 2 2 0 111.41.58zm0-2z" fill="url(#linear-gradient-6)"/><path d="M41.19 38.81a2 2 0 111.41-.58 2 2 0 01-1.41.58zm0-2z" fill="url(#linear-gradient-7)"/><path d="M22.81 38.81a2 2 0 01-1.41-.58 2 2 0 111.41.58zm0-2z" fill="url(#linear-gradient-8)"/></g></svg>